<?xml version="1.0" encoding="UTF-8"?>
<svg id="Layer_2" data-name="Layer 2" xmlns="http://www.w3.org/2000/svg" viewBox="0 0 301 95.08">
  <defs>
    <style>
      .cls-1 {
        fill: none;
      }

      .cls-1, .cls-2 {
        stroke-width: 0px;
      }

      .cls-2 {
        fill: #fff;
      }
    </style>
  </defs>
  <g id="logos">
    <g>
      <g>
        <path id="path45" class="cls-2" d="m228.44,60.43h.43c0,.89.36,1.69.94,2.27s1.38.94,2.27.94,1.69-.36,2.27-.94.94-1.38.94-2.27h.43c0,2.01-1.63,3.64-3.63,3.64v-.22.22c-2.01,0-3.63-1.63-3.64-3.64m6.85,0c0-.88-.36-1.69-.94-2.26-.58-.58-1.39-.95-2.27-.95v-.43c2.01,0,3.63,1.63,3.63,3.63h-.43m-3.21-3.42v-.22.22m-3.64,3.42c0-2.01,1.64-3.63,3.64-3.63v.43c-.89,0-1.69.36-2.27.95-.58.57-.94,1.38-.94,2.26h-.43"/>
        <path id="path47" class="cls-2" d="m120.37,38.24h6.39v24.35h-6.39v-24.35Z"/>
        <path id="path49" class="cls-2" d="m213.79,52.21v10.29l-6.42-.02v-24.99l11.57,9.96v-9.21h6.37v25.25l-11.51-11.28"/>
        <path id="path51" class="cls-2" d="m88.26,50.35c0-6.91,5.61-12.52,12.52-12.52,3.12,0,5.97,1.15,8.16,3.03l-4.14,4.7c-1.08-.91-2.49-1.46-4.02-1.46-3.46,0-6.26,2.81-6.26,6.26s2.81,6.26,6.26,6.26c1.56,0,2.98-.57,4.08-1.52l4.13,4.7c-2.19,1.91-5.07,3.07-8.21,3.07-6.91,0-12.52-5.6-12.52-12.51"/>
        <path id="path53" class="cls-2" d="m138.91,68.16l-12.08-32.1h-10.1v26.62h-6.61v-26.62h-14.63l3.39-6.39h32.66l7.36,19.23,7.37-19.23h31.62l3.49,6.39h-30.39l-12.09,32.1"/>
        <path id="path55" class="cls-2" d="m159.32,62.5v-5.38h4.39c.71,0,2.07-.05,2.41-1.19.71-2.36-6.52-6.18-6.52-12.03,0-4.43,3.21-5.76,5.39-5.76h6.65v5.28h-4.11s-1.18,0-1.5.47c-1.78,2.55,6.6,6.28,6.6,13.13,0,3.58-3.07,5.47-6.13,5.47h-7.18"/>
        <path id="path57" class="cls-2" d="m151.1,38.14h6.39v24.35h-6.39v-24.35Z"/>
        <path id="path59" class="cls-2" d="m173.67,38.14h6.39v24.35h-6.39v-24.35Z"/>
        <path id="path61" class="cls-2" d="m233.02,62.29c-.11-.26-.09-.64-.14-.97-.06-.43-.22-.61-.67-.61h-.89v1.58h-.88v-4.04h2.18c.73,0,1.19.5,1.19,1.12,0,.48-.19.84-.64,1.02v.02c.44.11.57.53.59.95.02.26.02.73.17.95h-.89m-1.7-2.21h.98c.4,0,.61-.17.61-.58,0-.39-.22-.56-.61-.56h-.98v1.14"/>
        <path id="path63" class="cls-2" d="m83.41,62.59l-1.7-4.53h-7.93l-1.7,4.53h-6.8l12.46-35.68,12.46,35.68h-6.8m-7.69-11.04h3.77l-1.89-6.23-1.88,6.23"/>
        <path id="path65" class="cls-2" d="m181.22,50.34c0-6.92,5.62-12.54,12.55-12.54s12.54,5.62,12.54,12.54-5.62,12.55-12.54,12.55-12.55-5.62-12.55-12.55m6.32,0c0,3.44,2.79,6.23,6.23,6.23s6.22-2.79,6.22-6.23-2.79-6.22-6.22-6.22-6.23,2.79-6.23,6.22"/>
      </g>
      <rect class="cls-1" width="301" height="95.08"/>
    </g>
  </g>
</svg>