<?xml version="1.0" encoding="UTF-8"?>
<svg id="Layer_2" data-name="Layer 2" xmlns="http://www.w3.org/2000/svg" viewBox="0 0 285.91 95.08">
  <defs>
    <style>
      .cls-1 {
        fill: none;
      }

      .cls-1, .cls-2 {
        stroke-width: 0px;
      }

      .cls-2 {
        fill: #fff;
      }
    </style>
  </defs>
  <g id="logos">
    <g>
      <g id="aurigny-logo">
        <path class="cls-2" d="m88.37,60.24v-.92c-.81-.41-1.19-1.68-1.19-3.82v-9.16c0-3.33-.08-5.8-1.6-7.75-1.68-2.14-4.66-3.14-8.88-3.14-6.88,0-10.62,2.6-11.4,8.13h7.29c.33-1.79,1.65-2.74,3.93-2.74,2.06,0,3.14.73,3.14,2.14v.6c0,1.87-3.01,1.52-8.61,2.82-4.28,1-6.42,3.47-6.42,7.53,0,4.28,2.82,7.12,7.56,7.12,3.01,0,5.47-1.06,7.72-3.28.08.92.22,1.73.41,2.52h8.07v-.05Zm-8.7-11.4v2.79c0,2.55-1.92,4.25-4.6,4.25-1.79,0-2.93-1.19-2.93-2.87,0-1.46.81-2.19,2.6-2.68,1.76-.51,3.55-.62,4.93-1.49"/>
        <path class="cls-2" d="m112.97,60.24h-7.75v-3.33c-1.92,2.68-4.25,3.93-7.34,3.93-5.34,0-8.07-2.74-8.07-8.15v-16.66h7.94v13.54c0,3.6.65,5.26,3.33,5.26,2.87,0,3.95-1.87,3.95-5.85v-12.95h7.94v24.22h0Z"/>
        <path class="cls-2" d="m115.62,36.03h7.61v4.25c1.68-3.33,4.12-4.79,7.99-4.82v7.86c-.68-.08-1.35-.14-1.95-.14-2.41,0-3.95.68-4.93,2.22-.73,1.22-.81,3.41-.81,6.74v8.13h-7.88l-.03-24.24h0Z"/>
        <rect class="cls-2" x="133.45" y="36.03" width="7.88" height="24.22"/>
        <path class="cls-2" d="m144.8,62.3c.73,5.28,4.52,7.69,11.81,7.69,5.15,0,8.8-1.65,10.67-4.55,1.41-2.19,1.46-5.26,1.46-9.45v-19.96h-7.42v3.25c-1.95-2.68-4.33-3.87-7.67-3.87-5.99,0-10.21,5.01-10.21,12.68s4.33,12.41,10.13,12.41c3.28,0,5.74-1.27,7.48-3.87v2.55c0,3.68-1,5.28-4.66,5.28-2.06,0-3.25-.68-3.66-2.14h-7.94Zm6.83-14.28c0-4.23,1.68-6.47,4.69-6.47s4.6,2.19,4.6,6.47c0,3.98-1.79,6.2-4.74,6.2-2.76,0-4.55-2.28-4.55-6.2"/>
        <path class="cls-2" d="m171.4,36.03h7.75v3.33c1.65-2.65,4.01-3.93,7.34-3.93,5.88,0,8.07,2.87,8.07,9.07v15.74h-7.94v-12.16c0-4.47-.19-6.61-3.33-6.61-2.87,0-4.01,1.87-4.01,5.85v12.92h-7.88v-24.22h0Z"/>
        <path class="cls-2" d="m206.85,69.43c-1.54.68-3.66.68-6.34.68h-2.09v-6.28h1.54c2.6,0,3.82-.46,3.82-2.47,0-.95-.51-2.19-1.19-3.93l-8.15-21.43h8.53l4.55,16.5,4.66-16.5h8.42l-9.67,26.9c-1.25,3.52-2.22,5.69-4.09,6.53"/>
        <path class="cls-2" d="m137.35,34.19c-2.63,0-4.47-1.92-4.47-4.6s1.9-4.6,4.5-4.6,4.47,1.84,4.5,4.6c0,2.68-1.84,4.6-4.5,4.6h-.03Z"/>
      </g>
      <rect class="cls-1" width="285.91" height="95.08"/>
    </g>
  </g>
</svg>