<?xml version="1.0" encoding="utf-8"?>
<!-- Generator: Adobe Illustrator 28.0.0, SVG Export Plug-In . SVG Version: 6.00 Build 0)  -->
<svg version="1.1" id="Layer_1" xmlns="http://www.w3.org/2000/svg" xmlns:xlink="http://www.w3.org/1999/xlink" x="0px" y="0px"
	 viewBox="0 0 750.3 768" style="enable-background:new 0 0 750.3 768;" xml:space="preserve">
<style type="text/css">
	.st0{fill:#EAED74;}
</style>
<g>
	<g>
		<path class="st0" d="M629.4,231.7v135.8c0,8.9-7.2,16.2-16.2,16.2h-52.4c-8.9,0-16.2-7.2-16.2-16.2V231.8c0-4.8-2-9.2-5.1-12.4
			c-3.2-3.2-7.6-5.1-12.4-5.1H223.4c-4.8,0-9.2,2-12.4,5.1c-3.2,3.2-5.1,7.6-5.1,12.4v303.7c0,4.8,2,9.2,5.1,12.4
			c3.2,3.2,7.6,5.1,12.4,5.1h303.7c4.9,0,9.2-2,12.4-5.1c3.2-3.2,5.1-7.6,5.1-12.4v-51c0-8.9,7.2-16.2,16.2-16.2h52.4
			c8.9,0,16.2,7.2,16.2,16.2v52.4c0,8.9-7.2,16.2-16.2,16.2h-51c-4.9,0-9.2,2-12.4,5.1c-3.2,3.2-5.1,7.6-5.1,12.4v49.7
			c0,9.6-7.8,17.4-17.4,17.4h-304c-9.6,0-17.4-7.8-17.4-17.4v-49.7c0-4.9-2-9.2-5.1-12.4c-3.2-3.2-7.6-5.1-12.4-5.1h-49.7
			c-9.6,0-17.4-7.8-17.4-17.4v-304c0-9.6,7.8-17.4,17.4-17.4h49.7c4.8,0,9.2-2,12.4-5.1c3.2-3.2,5.1-7.6,5.1-12.4V147
			c0-9.6,7.8-17.4,17.4-17.4h304c9.6,0,17.4,7.8,17.4,17.4v49.7c0,4.8,2,9.2,5.1,12.4c3.2,3.2,7.6,5.1,12.4,5.1H612
			C621.6,214.2,629.4,222,629.4,231.7z"/>
	</g>
</g>
<g>
	<g>
		<g>
			<path class="st0" d="M574,599c0-2.3,0.4-4.5,1.3-6.5c0.9-2,2.1-3.8,3.6-5.3s3.3-2.7,5.3-3.6c2-0.9,4.2-1.3,6.5-1.3
				s4.5,0.4,6.5,1.3c2,0.9,3.8,2.1,5.3,3.6s2.7,3.3,3.6,5.3c0.9,2,1.3,4.2,1.3,6.5s-0.4,4.5-1.3,6.5c-0.9,2-2.1,3.8-3.6,5.3
				s-3.3,2.7-5.3,3.6c-2,0.9-4.2,1.3-6.5,1.3s-4.5-0.4-6.5-1.3c-2-0.9-3.8-2.1-5.3-3.6s-2.7-3.3-3.6-5.3
				C574.4,603.4,574,601.3,574,599z M576.9,599c0,1.9,0.4,3.7,1.1,5.3c0.7,1.7,1.7,3.1,2.9,4.4c1.2,1.2,2.7,2.2,4.4,2.9
				s3.5,1.1,5.3,1.1s3.7-0.4,5.3-1.1c1.7-0.7,3.1-1.7,4.4-2.9c1.2-1.2,2.2-2.7,2.9-4.4s1.1-3.5,1.1-5.3c0-1.9-0.4-3.7-1.1-5.3
				c-0.7-1.7-1.7-3.1-2.9-4.4c-1.2-1.2-2.7-2.2-4.4-2.9s-3.5-1.1-5.3-1.1s-3.7,0.4-5.3,1.1c-1.7,0.7-3.1,1.7-4.4,2.9
				c-1.2,1.2-2.2,2.7-2.9,4.4C577.3,595.3,576.9,597.1,576.9,599z M599.1,602c-0.5,2.2-1.5,3.9-2.9,5.1c-1.5,1.3-3.3,1.9-5.4,1.9
				c-1.6,0-3-0.2-4.2-0.7s-2.3-1.2-3.1-2.1c-0.9-0.9-1.5-2-2-3.2c-0.4-1.3-0.7-2.6-0.7-4.2s0.2-2.9,0.7-4.2c0.4-1.3,1.1-2.3,1.9-3.2
				s1.8-1.6,3.1-2.1c1.2-0.5,2.6-0.7,4.2-0.7c2.2,0,4.1,0.6,5.7,1.7c1.5,1.2,2.5,2.9,2.8,5.1h-3.5c-0.3-1.1-0.8-2-1.6-2.6
				c-0.8-0.7-1.9-1-3.4-1c-2.1,0-3.7,0.6-4.8,1.8c-1,1.2-1.6,2.9-1.6,5.1c0,1,0.1,1.9,0.4,2.8c0.3,0.9,0.7,1.6,1.3,2.2
				c0.6,0.6,1.2,1.2,2,1.5c0.8,0.4,1.7,0.6,2.7,0.6c1.4,0,2.5-0.3,3.3-1s1.3-1.6,1.5-2.8L599.1,602L599.1,602z"/>
		</g>
	</g>
</g>
</svg>
