<?xml version="1.0" encoding="UTF-8"?>
<svg id="Layer_2" data-name="Layer 2" xmlns="http://www.w3.org/2000/svg" viewBox="0 0 314.59 31.44">
  <defs>
    <style>
      .cls-1 {
        fill: #e6e6e6;
        stroke-width: 0px;
      }
    </style>
  </defs>
  <g id="Layer_1-2" data-name="Layer 1">
    <g>
      <g>
        <path class="cls-1" d="m71.45,17.75c-.3,2.6-1.79,5.09-4.04,6.81-1.95,1.45-4.45,2.16-7.55,2.16-4.75,0-8.19-1.62-10.42-4.89-1.35-2.02-1.89-4.04-1.89-7.31,0-2.6,1.08-5.6,2.66-7.52,2.12-2.56,5.39-3.91,9.5-3.91,4.42,0,7.72,1.31,9.91,4.01,1.18,1.42,1.72,2.76,1.82,4.55h-3.4c-.24-1.18-.64-1.99-1.38-2.9-1.55-1.89-3.64-2.76-6.71-2.76-2.73,0-4.89.84-6.4,2.39-1.58,1.65-2.53,4.11-2.53,6.61,0,3.07.98,5.33,2.9,6.88,1.58,1.31,3.81,2.06,6.03,2.06,4.15,0,7.08-2.22,8.09-6.2l3.4.03Z"/>
        <path class="cls-1" d="m72.76,3.7h2.97v8.86c1.52-2.26,3.61-3.24,6.88-3.24,4.04,0,6.47,2.16,6.47,5.76v11.09h-3v-9.77c0-3.03-1.55-4.58-4.72-4.58s-5.66,2.09-5.66,4.52v9.84h-2.93V3.7Z"/>
        <path class="cls-1" d="m110.38,25.91c-.98.1-1.55.17-2.09.17-2.16,0-3.03-.74-3.27-2.76-1.31,2.16-4.18,3.4-7.72,3.4-4.31,0-6.67-1.79-6.67-5.16,0-1.38.78-2.7,2.09-3.51.61-.4,1.18-.67,1.72-.81,1.72-.47,4.21-.84,7.48-1.11,2.09-.17,2.83-.67,2.83-1.85,0-1.72-1.42-2.53-4.38-2.53-4.04,0-5.53.77-6.2,3.07h-2.93c.17-1.65.94-3.03,2.22-4.01,1.42-1.04,3.5-1.45,6.98-1.45,1.96,0,4.04.4,5.33,1.08,1.58.81,2.19,2.22,2.19,5.49v5.16c0,2.33.3,2.63,2.43,2.63v2.19Zm-5.43-8.36c-1.25.64-3.13,1.04-5.83,1.21-2.29.17-4.15.78-4.75,1.58-.27.4-.47.91-.47,1.42,0,1.62,1.38,2.53,3.81,2.53s4.96-.91,6.17-2.29c.74-.84,1.08-1.75,1.08-2.9v-1.55Z"/>
        <path class="cls-1" d="m111.56,9.87h2.97v3c1.58-2.49,3.3-3.57,5.76-3.57.44,0,.74.03,1.38.1v2.93c-.78-.13-1.18-.17-1.82-.17-2.19,0-3.84.88-4.69,2.43-.34.64-.64,1.89-.64,2.6v9h-2.97V9.87Z"/>
        <path class="cls-1" d="m122.89,3.7h2.97v22.48h-2.97V3.7Z"/>
        <path class="cls-1" d="m145.2,21.5c-.67,1.58-1.18,2.36-2.16,3.2-1.58,1.35-3.74,2.06-6.34,2.06-3.2,0-5.46-.81-7.18-2.63-1.35-1.42-2.06-3.54-2.06-6.17,0-2.43,1.21-5.06,3.03-6.54,1.52-1.31,3.81-2.02,6.2-2.02,5.59,0,9.07,3.37,9.07,8.8v.74l-15.13-.03c.2,1.48.5,2.26,1.25,3.24,1.15,1.48,2.6,2.16,4.85,2.16,2.53,0,4.31-.98,5.19-2.8h3.27Zm-2.8-5.09c-.13-1.21-.41-1.79-1.08-2.6-1.11-1.35-2.7-2.02-4.62-2.02-3.03,0-5.43,1.85-5.83,4.62h11.53Z"/>
        <path class="cls-1" d="m149.62,20.89c.2,1.04.51,1.65,1.08,2.16.94.84,2.66,1.28,4.75,1.28,3.2,0,4.96-.91,4.96-2.63,0-.94-.47-1.48-1.65-1.82-.24-.1-.51-.1-1.25-.27l-2.43-.4-.81-.14-.84-.13c-2.83-.47-3.5-.67-4.52-1.38-1.04-.71-1.62-1.85-1.62-3.1,0-1.62,1.04-3.3,2.63-4.08,1.45-.77,2.9-1.01,5.53-1.01,1.25,0,2.9.24,3.88.57,2.09.74,3.47,2.46,3.81,4.72h-3.03c-.34-.91-.74-1.55-1.31-2.02-.5-.37-1.25-.61-2.22-.74-.47-.07-1.21-.1-1.48-.1-2.02,0-2.63.1-3.54.61-.67.4-1.15,1.04-1.15,1.69,0,.67.34,1.18.94,1.45.64.3.88.34,3.88.84,4.15.67,5.16.94,6.1,1.45,1.45.81,2.22,2.06,2.22,3.64,0,1.72-.94,3.24-2.56,4.15-1.48.84-3.1,1.15-5.73,1.15-3.37,0-5.87-.74-7.31-2.26-.91-.94-1.28-1.92-1.35-3.57l3.03-.03Z"/>
        <path class="cls-1" d="m194.72,17.75c-.3,2.6-1.79,5.09-4.04,6.81-1.95,1.45-4.45,2.16-7.55,2.16-4.75,0-8.19-1.62-10.42-4.89-1.35-2.02-1.89-4.04-1.89-7.31,0-2.6,1.08-5.6,2.66-7.52,2.12-2.56,5.39-3.91,9.51-3.91,4.42,0,7.72,1.31,9.91,4.01,1.18,1.42,1.72,2.76,1.82,4.55h-3.4c-.24-1.18-.64-1.99-1.38-2.9-1.55-1.89-3.64-2.76-6.71-2.76-2.73,0-4.89.84-6.4,2.39-1.58,1.65-2.53,4.11-2.53,6.61,0,3.07.98,5.33,2.9,6.88,1.58,1.31,3.81,2.06,6.03,2.06,4.15,0,7.08-2.22,8.09-6.2l3.4.03Z"/>
        <path class="cls-1" d="m215.01,17.96c0,5.16-4.01,8.76-9.74,8.76-3.1,0-5.66-.94-7.45-2.8-1.38-1.38-2.36-3.67-2.36-5.63,0-5.39,3.94-8.97,9.78-8.97s9.77,3.61,9.77,8.63Zm-16.42.27c0,1.08.51,2.56,1.18,3.51,1.15,1.62,3.13,2.53,5.49,2.53,3.88,0,6.61-2.56,6.61-6.2s-2.73-6.24-6.64-6.24-6.64,2.56-6.64,6.4Z"/>
        <path class="cls-1" d="m216.63,3.7h2.97v22.48h-2.97V3.7Z"/>
        <path class="cls-1" d="m221.79,3.7h2.97v22.48h-2.97V3.7Z"/>
        <path class="cls-1" d="m244.1,21.5c-.67,1.58-1.18,2.36-2.16,3.2-1.58,1.35-3.74,2.06-6.34,2.06-3.2,0-5.46-.81-7.18-2.63-1.35-1.42-2.06-3.54-2.06-6.17,0-2.43,1.21-5.06,3.03-6.54,1.52-1.31,3.81-2.02,6.2-2.02,5.59,0,9.07,3.37,9.07,8.8v.74l-15.13-.03c.2,1.48.5,2.26,1.25,3.24,1.15,1.48,2.59,2.16,4.85,2.16,2.53,0,4.31-.98,5.19-2.8h3.27Zm-2.8-5.09c-.13-1.21-.41-1.79-1.08-2.6-1.11-1.35-2.7-2.02-4.62-2.02-3.03,0-5.43,1.85-5.83,4.62h11.53Z"/>
        <path class="cls-1" d="m264.09,20.15c-.44,1.89-.91,2.76-2.02,3.91-1.72,1.79-3.98,2.66-6.88,2.66-5.97,0-9.47-3.34-9.47-9,0-2.83,1.69-5.73,4.15-7.18,1.38-.78,3.3-1.25,5.36-1.25,4.62,0,7.89,2.12,8.73,5.56l-3.13.03c-1.08-2.23-2.7-3.1-5.59-3.1-2.12,0-3.94.74-4.99,1.99-.88,1.08-1.42,2.63-1.42,4.15,0,3.81,2.43,6.2,6.2,6.2,3.13,0,5.53-1.58,5.9-3.98h3.17Z"/>
        <path class="cls-1" d="m263.72,9.87h2.8v-4.69h3v4.69h3.88v2.43h-3.88v9.1c0,1.99.2,2.39,2.66,2.39.34,0,.74-.03,1.18-.03v2.39c-.71.07-1.38.07-2.02.07-.51,0-1.01,0-1.45-.03-2.22-.13-3.37-1.28-3.37-3.37v-10.52h-2.8v-2.43Z"/>
        <path class="cls-1" d="m274.75,3.7h2.97v3.03h-2.97v-3.03Zm0,6.17h2.97v16.31h-2.97V9.87Z"/>
        <path class="cls-1" d="m282.2,9.87l5.87,12.81,5.63-12.81h3.27l-7.45,16.31h-3.03l-7.62-16.31h3.34Z"/>
        <path class="cls-1" d="m314.02,21.5c-.67,1.58-1.18,2.36-2.16,3.2-1.58,1.35-3.74,2.06-6.34,2.06-3.2,0-5.46-.81-7.18-2.63-1.35-1.42-2.06-3.54-2.06-6.17,0-2.43,1.21-5.06,3.03-6.54,1.52-1.31,3.81-2.02,6.2-2.02,5.59,0,9.07,3.37,9.07,8.8v.74l-15.13-.03c.2,1.48.5,2.26,1.25,3.24,1.15,1.48,2.59,2.16,4.85,2.16,2.53,0,4.31-.98,5.19-2.8h3.27Zm-2.8-5.09c-.13-1.21-.41-1.79-1.08-2.6-1.11-1.35-2.7-2.02-4.62-2.02-3.03,0-5.43,1.85-5.83,4.62h11.53Z"/>
      </g>
      <path class="cls-1" d="m30.36,5.24h-3.08c-.6,0-1.09-.49-1.09-1.09V1.08c0-.6-.48-1.08-1.08-1.08H6.32c-.6,0-1.08.48-1.08,1.08v3.08c0,.6-.49,1.09-1.09,1.09H1.08c-.6,0-1.08.48-1.08,1.08v18.8c0,.6.48,1.08,1.08,1.08h3.08c.6,0,1.09.49,1.09,1.09v3.08c0,.6.48,1.08,1.08,1.08h18.8c.6,0,1.08-.48,1.08-1.08v-3.08c0-.6.49-1.09,1.09-1.09h3.15c.55,0,1-.45,1-1v-3.24c0-.55-.45-1-1-1h-3.24c-.55,0-1,.45-1,1v3.15c0,.6-.49,1.09-1.09,1.09H6.32c-.6,0-1.09-.49-1.09-1.09V6.32c0-.6.49-1.09,1.09-1.09h18.79c.6,0,1.09.49,1.09,1.09v8.39c0,.55.45,1,1,1h3.24c.55,0,1-.45,1-1V6.32c0-.6-.48-1.08-1.08-1.08Z"/>
    </g>
  </g>
</svg>