<?xml version="1.0" encoding="UTF-8"?>
<svg id="Layer_2" data-name="Layer 2" xmlns="http://www.w3.org/2000/svg" viewBox="0 0 373.75 95.08">
  <defs>
    <style>
      .cls-1 {
        fill: none;
      }

      .cls-1, .cls-2 {
        stroke-width: 0px;
      }

      .cls-2 {
        fill: #fff;
      }
    </style>
  </defs>
  <g id="logos">
    <g>
      <g>
        <path class="cls-2" d="m131.83,43.03c-.16-.62-.38-1.23-.69-1.79-.28-.54-.67-1.02-1.13-1.41-.48-.41-1.03-.73-1.62-.92-.7-.24-1.42-.34-2.16-.33-1.2,0-2.23.25-3.09.73-.85.46-1.58,1.13-2.12,1.93-.56.83-.97,1.77-1.21,2.75-.52,2.07-.52,4.23,0,6.3.25.98.65,1.91,1.21,2.75.54.8,1.26,1.47,2.12,1.93.87.48,1.9.73,3.09.73.79.02,1.59-.14,2.32-.45.66-.29,1.25-.72,1.74-1.26.49-.55.87-1.18,1.13-1.87.27-.74.46-1.51.53-2.29h3.83c-.07,1.26-.36,2.51-.86,3.68-.47,1.08-1.15,2.06-1.99,2.87-.85.81-1.85,1.44-2.96,1.86-1.2.45-2.46.68-3.74.67-1.68,0-3.18-.31-4.51-.93-1.29-.59-2.44-1.45-3.37-2.53-.94-1.1-1.66-2.37-2.12-3.74-.98-2.94-.98-6.13,0-9.08.46-1.37,1.19-2.64,2.12-3.74.93-1.08,2.08-1.95,3.37-2.55,1.33-.63,2.83-.94,4.51-.94,1.21,0,2.4.17,3.55.52,1.06.32,2.06.83,2.94,1.51.84.66,1.54,1.47,2.06,2.4.54,1,.87,2.1.97,3.24h-3.93Z"/>
        <path class="cls-2" d="m138.18,35.9h3.58v22.44h-3.58v-22.44Z"/>
        <path class="cls-2" d="m152.19,58.77c-1.29,0-2.45-.22-3.47-.65-.97-.4-1.85-1.01-2.57-1.77-.72-.77-1.26-1.7-1.6-2.7-.74-2.24-.74-4.65,0-6.88.34-1,.88-1.92,1.6-2.71.73-.76,1.6-1.37,2.58-1.77,1.02-.43,2.18-.65,3.47-.65s2.45.22,3.47.65c.97.4,1.85,1.01,2.58,1.77.72.77,1.26,1.7,1.6,2.7.74,2.24.74,4.65,0,6.88-.34,1-.88,1.92-1.6,2.7-.73.76-1.6,1.37-2.58,1.77-1.03.44-2.19.66-3.48.66Zm0-2.82c.79,0,1.49-.17,2.07-.5.58-.32,1.07-.77,1.44-1.32.38-.56.67-1.18.83-1.83.35-1.36.35-2.79,0-4.17-.17-.66-.44-1.28-.83-1.83-.38-.54-.87-.98-1.44-1.3-.59-.33-1.27-.5-2.07-.5s-1.48.17-2.07.5c-.57.32-1.07.76-1.44,1.3-.39.56-.67,1.18-.83,1.83-.35,1.36-.35,2.79,0,4.17.17.66.45,1.27.83,1.83.37.54.87.99,1.44,1.32.58.33,1.27.5,2.07.5Z"/>
        <path class="cls-2" d="m165.07,53.12c.11,1.05.5,1.77,1.2,2.2.69.42,1.52.63,2.48.63.38,0,.76-.03,1.15-.08.41-.05.82-.15,1.21-.29.36-.14.68-.35.92-.65.24-.28.35-.66.33-1.12,0-.43-.19-.83-.5-1.13-.35-.31-.76-.56-1.21-.71-.55-.2-1.11-.34-1.68-.45-.63-.13-1.26-.26-1.91-.41-.66-.14-1.29-.32-1.93-.54-.6-.2-1.16-.48-1.67-.84-.49-.36-.89-.82-1.18-1.36-.29-.56-.44-1.25-.44-2.06,0-.88.22-1.62.65-2.22.43-.6.99-1.09,1.64-1.44.69-.37,1.43-.64,2.2-.77s1.53-.22,2.31-.22,1.62.09,2.4.26c.74.17,1.44.46,2.07.86.62.4,1.15.93,1.54,1.56.41.64.67,1.41.76,2.31h-3.74c-.17-.85-.56-1.43-1.18-1.73-.67-.3-1.39-.45-2.12-.44-.3,0-.6.02-.89.06-.33.04-.66.12-.97.24-.29.11-.56.27-.76.5-.22.24-.33.55-.31.87,0,.4.16.79.45,1.07.35.3.76.53,1.2.68.55.2,1.11.34,1.69.45.63.13,1.27.26,1.95.41.65.15,1.28.32,1.91.53.6.2,1.17.48,1.69.85.49.35.9.81,1.2,1.35.3.55.45,1.22.46,2.01,0,.96-.22,1.78-.66,2.45s-1.02,1.23-1.72,1.64c-.73.43-1.52.74-2.34.91-.83.19-1.7.28-2.55.28-.96,0-1.91-.11-2.84-.34-.81-.21-1.58-.56-2.27-1.05-.63-.46-1.15-1.07-1.51-1.76-.36-.71-.56-1.53-.58-2.5l3.55-.03Z"/>
        <path class="cls-2" d="m180.75,51.14c0,.62.09,1.24.26,1.82.17.56.43,1.08.8,1.54.36.45.82.8,1.35,1.05.55.26,1.2.39,1.95.39,1.05,0,1.89-.23,2.53-.68s1.12-1.13,1.43-2.03h3.39c-.33,1.65-1.27,3.11-2.63,4.1-.67.48-1.4.84-2.19,1.07-.82.25-1.68.36-2.53.36-1.27,0-2.41-.21-3.39-.63-.95-.39-1.8-1-2.5-1.76-.7-.78-1.23-1.71-1.54-2.7-.35-1.12-.53-2.28-.52-3.45,0-1.12.18-2.23.55-3.28.34-1,.87-1.93,1.57-2.74.69-.78,1.52-1.42,2.47-1.87.96-.46,2.05-.69,3.27-.69s2.42.26,3.44.8c.99.51,1.85,1.24,2.53,2.12.69.9,1.18,1.93,1.46,3.03.3,1.16.38,2.35.24,3.53h-11.95Zm8.35-2.35c-.04-.56-.17-1.11-.36-1.64-.19-.5-.46-.96-.81-1.36-.35-.39-.78-.72-1.26-.94-.51-.25-1.08-.37-1.65-.36-.59,0-1.17.11-1.72.33-.5.21-.95.52-1.32.91-.37.4-.68.86-.88,1.36-.23.54-.34,1.12-.36,1.7h8.36Z"/>
        <path class="cls-2" d="m201.95,35.9h15.49v3.39h-11.57v5.87h10.15v3.2h-10.14v9.96h-3.92v-22.43Z"/>
        <path class="cls-2" d="m219.26,35.9h3.58v3.39h-3.58v-3.39Zm0,6.19h3.58v16.24h-3.58v-16.24Z"/>
        <path class="cls-2" d="m226.18,42.09h3.39v2.39l.06.06c.52-.87,1.26-1.61,2.14-2.12.88-.52,1.9-.78,2.92-.77,1.78,0,3.19.46,4.21,1.38,1.03.92,1.54,2.3,1.54,4.15v11.16h-3.58v-10.22c-.04-1.27-.31-2.21-.81-2.78-.5-.58-1.28-.86-2.35-.86-.56,0-1.12.1-1.64.33-.47.21-.89.52-1.23.91-.34.4-.61.86-.78,1.36-.2.54-.28,1.1-.28,1.67v9.58h-3.58v-16.24Z"/>
        <path class="cls-2" d="m256.74,54.72c0,.44.06.76.18.94s.34.28.68.28h.37c.17,0,.33-.02.5-.06v2.48c-.13.04-.28.09-.49.14s-.4.1-.61.14-.42.08-.63.1c-.18.02-.35.03-.53.03-.74,0-1.34-.15-1.82-.44s-.79-.8-.94-1.54c-.74.71-1.64,1.23-2.62,1.51-.97.3-1.98.46-3,.47-.72,0-1.42-.1-2.11-.29-.64-.19-1.25-.48-1.77-.88-.52-.39-.93-.89-1.23-1.48-.31-.65-.47-1.36-.46-2.09,0-1,.19-1.82.55-2.45.34-.61.84-1.12,1.44-1.48.63-.36,1.3-.63,2.01-.76.75-.16,1.49-.28,2.25-.36.61-.12,1.24-.21,1.85-.26.53-.04,1.05-.13,1.56-.26.4-.1.76-.29,1.07-.58.26-.26.39-.66.39-1.18,0-.46-.11-.83-.33-1.13-.22-.28-.49-.52-.81-.68-.34-.17-.71-.26-1.09-.31-.37-.05-.76-.08-1.13-.08-1,0-1.83.21-2.48.63-.65.42-1.02,1.07-1.1,1.95h-3.58c.07-1.05.31-1.91.76-2.61.42-.68,1-1.25,1.68-1.67.71-.43,1.49-.74,2.31-.88.87-.17,1.76-.25,2.64-.25.79,0,1.58.09,2.35.25.74.16,1.44.43,2.09.81.61.36,1.12.86,1.49,1.46.37.6.57,1.32.57,2.19v8.35Zm-3.58-4.52c-.55.35-1.22.57-2.01.65-.79.08-1.59.19-2.38.33-.37.06-.74.15-1.1.26-.33.11-.66.26-.94.47-.27.21-.5.47-.65.78-.17.37-.25.77-.24,1.18,0,.36.11.73.34,1,.23.27.51.49.83.65.34.16.7.27,1.07.33.34.06.7.09,1.05.1.43,0,.86-.06,1.28-.16.46-.11.9-.28,1.3-.53.4-.25.75-.57,1.02-.96.27-.38.41-.86.41-1.43v-2.68Z"/>
        <path class="cls-2" d="m260.03,42.09h3.39v2.39l.06.06c.52-.87,1.26-1.61,2.14-2.12.88-.52,1.89-.78,2.92-.77,1.77,0,3.19.46,4.21,1.38,1.03.92,1.54,2.3,1.54,4.15v11.16h-3.58v-10.22c-.04-1.27-.31-2.21-.81-2.78s-1.28-.86-2.35-.86c-.56,0-1.12.1-1.64.33-.47.21-.89.52-1.23.91-.34.4-.61.86-.78,1.36-.19.54-.28,1.1-.28,1.67v9.58h-3.58v-16.24h0Z"/>
        <path class="cls-2" d="m287.93,47.52c-.15-1-.55-1.77-1.21-2.27-.66-.51-1.49-.76-2.5-.77-.5,0-1,.09-1.48.24-.55.17-1.04.47-1.44.88-.44.43-.8,1.03-1.1,1.79s-.44,1.77-.44,3c0,.68.08,1.35.24,2.01.15.64.4,1.25.76,1.79.34.52.79.96,1.33,1.27.55.32,1.21.49,1.98.49,1.05,0,1.91-.32,2.59-.97.69-.65,1.11-1.56,1.27-2.74h3.58c-.33,2.12-1.14,3.74-2.4,4.85-1.26,1.12-2.95,1.68-5.04,1.68-1.27,0-2.4-.22-3.37-.65-.94-.4-1.77-1-2.46-1.76-.69-.77-1.2-1.68-1.52-2.67-.35-1.08-.53-2.21-.52-3.33,0-1.16.16-2.31.5-3.42.3-1.02.82-1.96,1.5-2.78.69-.79,1.54-1.43,2.5-1.85.99-.45,2.17-.68,3.5-.68.91,0,1.81.12,2.69.36.81.23,1.58.59,2.27,1.08.67.48,1.22,1.11,1.62,1.82.42.74.67,1.6.76,2.61h-3.59Z"/>
        <path class="cls-2" d="m296.45,51.14c0,.62.09,1.24.26,1.82.17.56.43,1.08.8,1.54.36.45.82.8,1.35,1.05.55.26,1.2.39,1.95.39,1.05,0,1.89-.23,2.53-.68s1.12-1.13,1.43-2.03h3.39c-.33,1.65-1.27,3.11-2.64,4.1-.67.48-1.4.84-2.19,1.07-.82.25-1.68.36-2.53.36-1.27,0-2.41-.21-3.39-.63-.95-.39-1.8-1-2.5-1.76-.7-.78-1.23-1.71-1.54-2.7-.35-1.12-.53-2.28-.52-3.45,0-1.12.18-2.23.55-3.28.34-1,.87-1.93,1.57-2.74.69-.78,1.52-1.42,2.46-1.87.96-.46,2.05-.69,3.27-.69s2.42.26,3.44.8c.99.51,1.85,1.24,2.53,2.12.69.9,1.18,1.93,1.46,3.03.3,1.16.38,2.35.24,3.53h-11.93Zm8.35-2.35c-.04-.56-.17-1.11-.36-1.64-.19-.5-.46-.96-.81-1.36-.35-.39-.78-.72-1.26-.94-.51-.25-1.08-.37-1.65-.36-.59,0-1.17.11-1.72.33-.5.21-.95.52-1.32.91-.37.4-.68.86-.88,1.36-.23.54-.34,1.12-.36,1.7h8.36Z"/>
        <path class="cls-2" d="m107.06,47.53c0,5.67-2.26,10.82-5.95,14.57l-7.73-7.73c1.69-1.79,2.74-4.18,2.74-6.83,0-5.48-4.45-9.93-9.95-9.93s-9.93,4.45-9.93,9.93c0,2.64,1.02,5.03,2.71,6.82l-7.76,7.71c-3.65-3.75-5.9-8.88-5.9-14.53,0-11.52,9.36-20.88,20.88-20.88s20.89,9.36,20.89,20.88Z"/>
        <path class="cls-2" d="m99.33,63.74c-3.59,2.93-8.17,4.68-13.16,4.68s-9.59-1.76-13.19-4.71l7.84-7.81,5.35-5.31,5.33,5.33,7.83,7.82Z"/>
      </g>
      <rect class="cls-1" width="373.75" height="95.08"/>
    </g>
  </g>
</svg>