<?xml version="1.0" encoding="UTF-8"?>
<svg id="Layer_2" data-name="Layer 2" xmlns="http://www.w3.org/2000/svg" xmlns:xlink="http://www.w3.org/1999/xlink" viewBox="0 0 325.82 95.08">
  <defs>
    <style>
      .cls-1 {
        fill: none;
      }

      .cls-1, .cls-2, .cls-3, .cls-4, .cls-5, .cls-6, .cls-7, .cls-8, .cls-9, .cls-10 {
        stroke-width: 0px;
      }

      .cls-2 {
        fill: url(#linear-gradient);
      }

      .cls-3 {
        fill: url(#linear-gradient-4);
      }

      .cls-4 {
        fill: url(#linear-gradient-2);
      }

      .cls-5 {
        fill: url(#linear-gradient-3);
      }

      .cls-6 {
        fill: url(#linear-gradient-8);
      }

      .cls-7 {
        fill: url(#linear-gradient-7);
      }

      .cls-8 {
        fill: url(#linear-gradient-5);
      }

      .cls-9 {
        fill: url(#linear-gradient-6);
      }

      .cls-10 {
        fill: #fff;
      }
    </style>
    <linearGradient id="linear-gradient" x1="66.1" y1="30.24" x2="71.78" y2="47.02" gradientUnits="userSpaceOnUse">
      <stop offset="0" stop-color="#fff"/>
      <stop offset="1" stop-color="#fff" stop-opacity=".6"/>
    </linearGradient>
    <linearGradient id="linear-gradient-2" x1="90.46" y1="61.09" x2="73.11" y2="46.96" xlink:href="#linear-gradient"/>
    <linearGradient id="linear-gradient-3" x1="105.47" y1="63.68" x2="100.89" y2="47.72" xlink:href="#linear-gradient"/>
    <linearGradient id="linear-gradient-4" x1="81.15" y1="33.59" x2="98.78" y2="48.69" xlink:href="#linear-gradient"/>
    <linearGradient id="linear-gradient-5" x1="102.32" y1="27.63" x2="88.18" y2="33.31" xlink:href="#linear-gradient"/>
    <linearGradient id="linear-gradient-6" x1="102.14" y1="40.04" x2="86.47" y2="59.49" xlink:href="#linear-gradient"/>
    <linearGradient id="linear-gradient-7" x1="70.57" y1="67.09" x2="84.85" y2="61.55" xlink:href="#linear-gradient"/>
    <linearGradient id="linear-gradient-8" x1="78.1" y1="47.19" x2="89.28" y2="37.27" xlink:href="#linear-gradient"/>
  </defs>
  <g id="logos">
    <g>
      <g>
        <g>
          <path class="cls-10" d="m183.99,60.5h-2.99v-28.12h11.79c4.69,0,8.5,3.81,8.5,8.5s-3.81,8.5-8.5,8.5h-8.79v11.12Zm0-14.11h8.79c3.04,0,5.51-2.47,5.51-5.51s-2.47-5.51-5.51-5.51h-8.79v11.02Z"/>
          <path class="cls-10" d="m201.46,60.52h-2.28c-.86,0-1.66-.42-2.15-1.12l-7.19-10.31-1.83-2.61h3.65l9.8,14.04Z"/>
          <path class="cls-10" d="m219.05,48h-10.35v-2.99h12.06l-.23,1.7c-.1.74-.73,1.3-1.48,1.3Z"/>
          <path class="cls-10" d="m137.38,60.52c-3.75,0-7.31-1.45-10.02-4.1-2.73-2.66-4.24-6.19-4.24-9.93,0-2.67.51-4.96,1.51-6.81.18-.33.33-.56.49-.81l.07-.11c2.61-3.95,6.99-6.3,11.71-6.3,3.06,0,6.07,1.02,8.5,2.87l-.51.62c-.48.58-1.19.91-1.95.91-.4,0-.81-.09-1.17-.27-1.51-.74-3.2-1.14-4.88-1.14-3.72,0-7.16,1.85-9.21,4.96l-.07.11c-.15.23-.24.37-.36.59-.75,1.39-1.15,3.25-1.15,5.38,0,2.93,1.18,5.69,3.34,7.79,2.15,2.09,4.97,3.25,7.93,3.25,1.87,0,3.72-.48,5.35-1.38.36-.2.76-.3,1.18-.3.72,0,1.41.31,1.89.85l.53.6c-2.51,2.08-5.68,3.23-8.95,3.23Z"/>
          <path class="cls-10" d="m222.32,60.5h-15.12v-28.02h15.71l-.23,1.7c-.1.74-.73,1.3-1.48,1.3h-11v22.03h13.84l-.23,1.7c-.1.74-.73,1.3-1.48,1.3Z"/>
          <rect class="cls-10" x="229.31" y="32.48" width="2.99" height="28.02"/>
          <path class="cls-10" d="m260.52,60.52h-2.28c-.86,0-1.66-.42-2.15-1.12l-7.19-10.31-1.83-2.61-9.77-14h2.29c.86,0,1.66.42,2.15,1.12l7.16,10.26,1.82,2.62,9.8,14.04Z"/>
          <path class="cls-10" d="m260.49,32.48l-9.77,14-1.82,2.61-7.2,10.31c-.49.7-1.29,1.12-2.15,1.12h-2.28l9.8-14.04,1.83-2.62,7.16-10.26c.49-.7,1.29-1.12,2.15-1.12h2.28Z"/>
          <path class="cls-10" d="m162.37,60.63c-7.56,0-13.71-6.28-13.71-13.99s6.15-13.99,13.71-13.99,13.71,6.28,13.71,13.99-6.15,13.99-13.71,13.99Zm0-25.03c-5.93,0-10.75,4.95-10.75,11.03s4.82,11.03,10.75,11.03,10.75-4.95,10.75-11.03-4.82-11.03-10.75-11.03Z"/>
        </g>
        <path class="cls-2" d="m72.07,44.57c-.65.96-1.26,1.95-1.82,2.97-.2-.36-.39-.72-.58-1.08-.75-1.46-1.41-2.97-1.97-4.53-.14-.39-.27-.78-.41-1.17-1.3-3.94-2-8.15-2-12.52v-.21c0-.35.14-.67.38-.9l2.64,2.64c.22,5.29,1.54,10.3,3.76,14.79Z"/>
        <path class="cls-4" d="m106.48,67.94c-.23.23-.55.38-.9.38h-.21c-1.36,0-2.71-.07-4.04-.2-.29-.03-.58-.06-.87-.1-.22-.03-.44-.06-.65-.09-1.51-.21-3-.51-4.44-.88-.28-.07-.55-.15-.83-.22-.63-.17-1.25-.37-1.86-.57-.92-.31-1.83-.65-2.72-1.02-.57-.24-1.13-.49-1.69-.75-.55-.26-1.1-.54-1.65-.83-.18-.09-.36-.19-.54-.29,0,0,0,0,0,0-1.02-.55-2.01-1.16-2.98-1.81-4.36-2.92-8.11-6.67-11.03-11.03.49-1.02,1.04-2.01,1.63-2.98,3.08,5.04,7.33,9.29,12.37,12.37.96.59,1.96,1.14,2.98,1.64,4.5,2.21,9.5,3.54,14.78,3.75l2.64,2.64Z"/>
        <path class="cls-5" d="m106.86,66.83v.21c0,.35-.15.68-.38.9l-2.64-2.64c-.22-5.28-1.54-10.29-3.75-14.78.64-.96,1.25-1.96,1.81-2.98,3.16,5.72,4.96,12.3,4.96,19.28Z"/>
        <path class="cls-3" d="m100.08,44.56c-.5,1.02-1.04,2.01-1.64,2.98-3.08-5.04-7.33-9.29-12.37-12.37-.96-.59-1.95-1.13-2.97-1.63-4.5-2.21-9.5-3.54-14.79-3.76l-2.64-2.64c.21-.22.51-.36.84-.38h.28c6.99,0,13.56,1.8,19.29,4.96,1.02.56,2.01,1.17,2.97,1.82,4.36,2.92,8.11,6.67,11.03,11.03Z"/>
        <path class="cls-8" d="m106.48,27.13l-2.64,2.64c-5.29.22-10.29,1.54-14.79,3.76-.96-.65-1.95-1.25-2.97-1.82,5.72-3.16,12.3-4.96,19.29-4.96h.28c.33.01.62.15.84.37Z"/>
        <path class="cls-9" d="m106.86,28.04v.21c0,4.37-.7,8.58-2,12.52-.13.39-.26.78-.41,1.17-.57,1.55-1.23,3.07-1.97,4.53-.19.36-.38.72-.58,1.08h0c-.56,1.02-1.17,2.02-1.81,2.98-2.92,4.35-6.67,8.11-11.03,11.03-1.02-.5-2.02-1.04-2.98-1.64,5.04-3.08,9.29-7.33,12.37-12.37.59-.96,1.14-1.96,1.64-2.98,2.21-4.5,3.54-9.5,3.75-14.79l2.64-2.64c.23.23.38.55.38.9Z"/>
        <path class="cls-7" d="m86.08,63.36c-.09.05-.18.1-.27.15-.09.05-.18.1-.27.14-.54.29-1.09.57-1.65.83-.55.26-1.12.52-1.69.75-4.75,1.98-9.95,3.08-15.41,3.08h-.21c-.35,0-.67-.14-.9-.38l2.64-2.64c5.29-.22,10.29-1.54,14.79-3.75.96.65,1.95,1.25,2.98,1.81,0,0,0,0,0,0Z"/>
        <path class="cls-6" d="m86.07,35.17c-5.04,3.08-9.29,7.33-12.37,12.37-.59.96-1.14,1.96-1.63,2.98-2.22,4.5-3.54,9.5-3.76,14.79l-2.64,2.64c-.23-.23-.38-.55-.38-.9v-.21c0-6.99,1.8-13.56,4.96-19.29.56-1.02,1.16-2.01,1.82-2.97,2.92-4.36,6.67-8.12,11.03-11.03,1.02.5,2.01,1.05,2.97,1.63Z"/>
      </g>
      <rect class="cls-1" width="325.82" height="95.08"/>
    </g>
  </g>
</svg>