<?xml version="1.0" encoding="UTF-8"?>
<svg id="Layer_2" data-name="Layer 2" xmlns="http://www.w3.org/2000/svg" viewBox="0 0 404.94 95.08">
  <defs>
    <style>
      .cls-1 {
        fill: none;
      }

      .cls-1, .cls-2 {
        stroke-width: 0px;
      }

      .cls-2 {
        fill: #fff;
      }
    </style>
  </defs>
  <g id="logos">
    <g>
      <g>
        <path class="cls-2" d="m134.84,54.51c.24.25.36.54.36.87,0,.35-.12.64-.36.86-.24.22-.54.33-.91.33h-9.21c-.35,0-.65-.12-.9-.37-.25-.25-.37-.55-.37-.9v-15.98c0-.35.12-.65.37-.9.25-.25.55-.37.9-.37h9.21c.37,0,.67.11.91.34s.36.53.36.9-.12.64-.36.86-.54.33-.91.33h-7.86v5.4h6.67c.37,0,.67.11.91.34s.36.52.36.87c0,.37-.12.66-.36.87-.24.21-.54.32-.91.32h-6.67v5.85h7.86c.37,0,.67.12.91.37Z"/>
        <path class="cls-2" d="m150.34,54.45c.24.23.36.53.36.9s-.12.64-.36.87c-.24.23-.54.34-.91.34h-8.94c-.37,0-.68-.12-.91-.37-.24-.25-.36-.55-.36-.9v-15.98c0-.35.12-.65.37-.9.25-.25.56-.37.95-.37.35,0,.66.12.91.37.26.25.38.55.38.9v14.79h7.59c.37,0,.67.11.91.34Z"/>
        <path class="cls-2" d="m164.86,54.51c.24.25.36.54.36.87,0,.35-.12.64-.36.86-.24.22-.54.33-.91.33h-9.21c-.35,0-.65-.12-.9-.37-.25-.25-.37-.55-.37-.9v-15.98c0-.35.12-.65.37-.9.25-.25.55-.37.9-.37h9.21c.37,0,.67.11.91.34s.36.53.36.9-.12.64-.36.86-.54.33-.91.33h-7.86v5.4h6.67c.37,0,.67.11.91.34s.36.52.36.87c0,.37-.12.66-.36.87-.24.21-.54.32-.91.32h-6.67v5.85h7.86c.37,0,.67.12.91.37Z"/>
        <path class="cls-2" d="m182.88,40.2c0,.32-.11.61-.32.87-.21.28-.5.42-.87.42-.25,0-.49-.06-.71-.19-1.09-.62-2.27-.93-3.54-.93s-2.49.29-3.5.87c-1.01.58-1.8,1.4-2.37,2.45-.56,1.05-.85,2.25-.85,3.61,0,1.46.29,2.72.87,3.78.58,1.06,1.38,1.86,2.41,2.42,1.02.56,2.17.83,3.44.83s2.49-.32,3.54-.95c.21-.11.44-.16.69-.16.39,0,.7.15.93.45.21.26.32.55.32.85,0,.21-.06.41-.17.59-.12.19-.27.33-.46.44-.69.39-1.46.7-2.31.93s-1.7.34-2.53.34c-1.71,0-3.28-.38-4.72-1.14-1.44-.76-2.58-1.86-3.44-3.31-.86-1.45-1.28-3.14-1.28-5.08,0-1.78.41-3.39,1.23-4.83.82-1.44,1.95-2.57,3.39-3.39,1.44-.82,3.05-1.23,4.83-1.23s3.32.42,4.81,1.27c.42.23.64.58.64,1.06Z"/>
        <path class="cls-2" d="m199.16,38.38c.24.22.36.52.36.89s-.12.66-.36.87c-.24.21-.54.32-.91.32h-4.71v14.84c0,.35-.13.65-.38.9-.26.25-.58.37-.97.37s-.71-.12-.97-.37c-.26-.25-.38-.55-.38-.9v-14.84h-4.68c-.37,0-.67-.11-.91-.33s-.36-.52-.36-.89.12-.64.36-.86c.24-.22.54-.33.91-.33h12.09c.37,0,.68.11.91.33Z"/>
        <path class="cls-2" d="m217.78,54.92c.11.19.16.38.16.57,0,.37-.12.64-.36.82-.24.18-.52.26-.86.26s-.62-.07-.85-.21c-.53-.3-.96-.78-1.3-1.46-.34-.67-.5-1.66-.5-2.96,0-.88-.26-1.53-.79-1.96s-1.22-.63-2.06-.63h-5.34v5.95c0,.37-.11.68-.32.91-.21.24-.49.36-.82.36-.41,0-.75-.12-1.04-.37-.29-.25-.44-.55-.44-.9v-15.98c0-.35.12-.65.37-.9.25-.25.55-.37.9-.37h7.43c.95,0,1.83.23,2.62.7.79.47,1.43,1.11,1.9,1.93.48.82.71,1.74.71,2.76s-.26,1.91-.79,2.76c-.53.86-1.21,1.49-2.04,1.92.65.34,1.17.8,1.55,1.4.38.6.59,1.3.62,2.09.07,1.01.15,1.69.24,2.05.09.36.28.62.58.78.18.12.32.28.42.46Zm-4.62-8.29c.4-.32.72-.75.97-1.28.25-.54.37-1.14.37-1.81,0-.85-.26-1.56-.78-2.16-.52-.59-1.15-.89-1.89-.89h-5.95v6.67h6.03c.44-.03.86-.21,1.26-.53Z"/>
        <path class="cls-2" d="m224.49,56.2c-.26.25-.57.37-.93.37-.39,0-.7-.12-.94-.37-.24-.25-.36-.56-.36-.93v-15.95c0-.35.12-.65.37-.9.25-.25.56-.37.95-.37.35,0,.66.12.91.37.26.25.38.55.38.9v15.95c0,.37-.13.68-.4.93Z"/>
        <path class="cls-2" d="m244.2,40.2c0,.32-.11.61-.32.87-.21.28-.5.42-.87.42-.25,0-.49-.06-.71-.19-1.09-.62-2.27-.93-3.54-.93s-2.49.29-3.5.87c-1.01.58-1.8,1.4-2.37,2.45-.56,1.05-.85,2.25-.85,3.61,0,1.46.29,2.72.87,3.78.58,1.06,1.38,1.86,2.41,2.42,1.02.56,2.17.83,3.44.83s2.49-.32,3.54-.95c.21-.11.44-.16.69-.16.39,0,.7.15.93.45.21.26.32.55.32.85,0,.21-.06.41-.17.59-.12.19-.27.33-.46.44-.69.39-1.46.7-2.31.93s-1.7.34-2.53.34c-1.71,0-3.28-.38-4.72-1.14-1.44-.76-2.58-1.86-3.44-3.31-.86-1.45-1.28-3.14-1.28-5.08,0-1.78.41-3.39,1.23-4.83.82-1.44,1.95-2.57,3.39-3.39,1.44-.82,3.05-1.23,4.83-1.23s3.32.42,4.81,1.27c.42.23.64.58.64,1.06Z"/>
        <path class="cls-2" d="m266.22,54.45c.24.23.36.53.36.9s-.12.64-.36.87c-.24.23-.54.34-.91.34h-8.94c-.37,0-.68-.12-.91-.37-.24-.25-.36-.55-.36-.9v-15.98c0-.35.12-.65.37-.9.25-.25.56-.37.95-.37.35,0,.66.12.91.37.26.25.38.55.38.9v14.79h7.59c.37,0,.67.11.91.34Z"/>
        <path class="cls-2" d="m272.54,56.2c-.26.25-.57.37-.93.37-.39,0-.7-.12-.94-.37-.24-.25-.36-.56-.36-.93v-15.95c0-.35.12-.65.37-.9.25-.25.56-.37.95-.37.35,0,.66.12.91.37.26.25.38.55.38.9v15.95c0,.37-.13.68-.4.93Z"/>
        <path class="cls-2" d="m292.41,38.37c.26.23.38.51.38.85,0,.18-.04.37-.13.58l-6.75,15.95c-.12.26-.3.47-.53.61-.23.14-.47.21-.71.21-.23-.02-.45-.09-.65-.23-.2-.13-.37-.32-.49-.57l-6.75-15.98c-.07-.14-.11-.33-.11-.56,0-.37.13-.67.4-.9s.56-.34.87-.34c.53,0,.92.28,1.16.85l5.77,13.62,5.45-13.65c.12-.25.29-.44.49-.58.2-.14.43-.21.67-.21.35,0,.66.11.91.34Z"/>
        <path class="cls-2" d="m298.75,56.2c-.26.25-.57.37-.93.37-.39,0-.7-.12-.94-.37-.24-.25-.36-.56-.36-.93v-15.95c0-.35.12-.65.37-.9.25-.25.56-.37.95-.37.35,0,.66.12.91.37.26.25.38.55.38.9v15.95c0,.37-.13.68-.4.93Z"/>
        <path class="cls-2" d="m319.27,38.38c.21.22.32.5.32.83v16.06c0,.37-.12.68-.36.93-.24.25-.54.37-.91.37-.19,0-.38-.03-.57-.09-.19-.06-.33-.15-.44-.28l-10.4-13.54v12.75c0,.34-.11.61-.33.83-.22.22-.5.33-.83.33s-.61-.11-.82-.33c-.21-.22-.32-.5-.32-.83v-16.08c0-.37.12-.67.36-.91.24-.24.53-.36.89-.36.21,0,.41.04.61.12s.34.19.45.33l10.37,13.57v-12.86c0-.33.11-.61.33-.83.22-.22.5-.33.83-.33s.61.11.82.33Z"/>
        <path class="cls-2" d="m339.29,47.21c.24.25.36.55.36.9v5.95c0,.48-.21.85-.64,1.11-.81.53-1.7.94-2.67,1.23-.97.29-1.97.44-2.99.44-1.76,0-3.38-.42-4.85-1.27-1.47-.85-2.63-2-3.48-3.45-.85-1.45-1.27-3.05-1.27-4.8s.42-3.35,1.27-4.8c.85-1.45,2.01-2.61,3.48-3.45,1.47-.85,3.09-1.27,4.85-1.27.88,0,1.73.1,2.55.29.82.19,1.56.49,2.21.87.21.12.37.27.48.45s.16.37.16.58c0,.35-.12.66-.36.91-.24.26-.52.38-.86.38-.26,0-.49-.06-.69-.19-1.15-.53-2.31-.79-3.49-.79-1.27,0-2.43.31-3.48.93-1.05.62-1.88,1.46-2.49,2.54-.61,1.08-.91,2.26-.91,3.54s.3,2.46.91,3.53c.61,1.07,1.44,1.91,2.49,2.54,1.05.63,2.21.94,3.48.94.6,0,1.23-.07,1.89-.21.66-.14,1.23-.33,1.71-.56v-4.21h-3.2c-.35,0-.65-.12-.9-.36-.25-.24-.37-.53-.37-.89s.12-.67.37-.91c.25-.24.55-.36.9-.36h4.66c.35,0,.65.12.89.37Z"/>
        <g>
          <path class="cls-2" d="m93.86,57.28h-15.21c-2.71,0-4.91-2.2-4.91-4.91v-6.67c0-1.64.81-3.16,2.17-4.08l7.61-5.1c1.66-1.11,3.81-1.11,5.47,0l7.61,5.1c1.36.91,2.17,2.44,2.17,4.08v6.67c0,2.71-2.2,4.91-4.91,4.91Zm-7.6-19.17c-.48,0-.96.14-1.39.42l-7.61,5.1c-.69.46-1.1,1.23-1.1,2.06v6.67c0,1.37,1.12,2.49,2.49,2.49h15.21c1.37,0,2.49-1.12,2.49-2.49v-6.67c0-.83-.41-1.6-1.1-2.06l-7.6-5.1c-.42-.28-.9-.42-1.38-.42Z"/>
          <path class="cls-2" d="m93.94,67.73c-.47,0-.92-.28-1.12-.74-.26-.62.03-1.33.64-1.59,6.88-2.91,11.33-9.61,11.33-17.08,0-10.22-8.32-18.54-18.54-18.54s-18.54,8.32-18.54,18.54c0,7.75,4.04,14.48,9.83,16.39,2.11.69,3.84.56,5.15-.39,1.47-1.06,2.34-3.15,2.34-5.57v-2.17c0-.67.54-1.21,1.21-1.21s1.21.54,1.21,1.21v2.17c0,3.2-1.25,6.02-3.35,7.54-1.36.98-3.73,1.91-7.33.73-6.77-2.22-11.49-9.91-11.49-18.69,0-11.56,9.4-20.96,20.96-20.96s20.96,9.4,20.96,20.96c0,8.45-5.03,16.03-12.81,19.32-.15.07-.31.1-.47.1Z"/>
        </g>
      </g>
      <rect class="cls-1" width="404.94" height="95.08"/>
    </g>
  </g>
</svg>