<?xml version="1.0" encoding="UTF-8"?>
<svg id="Layer_2" data-name="Layer 2" xmlns="http://www.w3.org/2000/svg" viewBox="0 0 324.39 95.08">
  <defs>
    <style>
      .cls-1 {
        fill: none;
      }

      .cls-1, .cls-2 {
        stroke-width: 0px;
      }

      .cls-2 {
        fill: #fff;
      }
    </style>
  </defs>
  <g id="logos">
    <g>
      <g>
        <g>
          <path class="cls-2" d="m102.84,33.98c-3.67,0-7.17.73-10.1,1.92h-12.22c5.11-4.68,12.63-7.58,21.86-7.58,8.53,0,16.17,2.59,21.31,6.67l-5.65,4.21c-3.6-2.96-9.12-5.23-15.2-5.23Z"/>
          <path class="cls-2" d="m102.6,20.59c-20.6,0-37.31,12.07-37.31,26.95s16.7,26.95,37.31,26.95,37.31-12.07,37.31-26.95-16.7-26.95-37.31-26.95Zm0,53.12c-14.97,0-27.82-6.56-33.34-15.93h31.85v-5.7h-34.18c-.14-.59-.26-1.18-.34-1.78h34.51v-5.7h-34.48c.09-.59.21-1.21.35-1.78h34.14v-5.7h-31.73c5.58-9.26,18.35-15.74,33.23-15.74,20.01,0,36.22,11.72,36.22,26.17s-16.22,26.17-36.22,26.17Z"/>
          <path class="cls-2" d="m130.01,44.59c.24.94.41,1.9.41,2.8,0,10.53-12.55,19.07-28.03,19.07-8.64,0-16.78-3.04-21.89-7.47h12.25c2.52.81,6.05,2.02,10.24,1.82,9.31-.44,16.65-4.65,18.59-10.51h-17.78v-5.71h26.22Z"/>
        </g>
        <g>
          <g>
            <path class="cls-2" d="m164.01,34.7l-2.43,8.1h-4.13l.39-1.17c-.42.39-.84.78-1.87,1.1-.84.26-1.72.37-2.63.37-1.65,0-3.05-.41-3.98-1.13-1.5-1.15-1.57-2.64-1.57-3.44,0-1.99.96-5.35,1.87-7.11.81-1.52,2.56-4.25,8.09-4.25,1.35,0,3.52.15,4.99,1.04,1.43.84,1.77,1.93,1.77,3.03,0,.43-.07.78-.15,1.13h-4.33c.05-.37.12-.71.12-1.1,0-.24,0-.95-.57-1.47-.39-.35-1.06-.58-1.87-.58-1.7,0-2.58.84-3.25,1.84-1.38,2.04-2.29,6.09-2.29,7.47,0,.54,0,2.56,2.75,2.56.25,0,.96,0,1.75-.3,1.52-.61,1.84-1.65,2.38-3.29l.17-.65h-3.25l.66-2.14h7.35Z"/>
            <path class="cls-2" d="m176.43,42.8h-3.98l.37-1.3c-.57.41-2.06,1.49-4.3,1.49-1.94,0-3.05-.87-3.05-2.36,0-.54.15-1.08.27-1.58l2.09-7.08h4.01l-1.94,6.58c-.15.45-.32,1.06-.32,1.56,0,.8.71,1.02,1.33,1.02.74,0,1.6-.32,2.09-.89.32-.39.49-.95.64-1.47l2.02-6.8h3.98l-3.2,10.83Z"/>
            <path class="cls-2" d="m192.56,39.37c-.22.61-.49,1.32-1.48,2.12-.79.65-2.38,1.56-5.36,1.56-3.17,0-5.29-1.02-5.29-3.66,0-1.28.49-3.16,1.18-4.4.81-1.54,2.36-3.29,6.44-3.29,2.41,0,5.29.61,5.29,3.64,0,.82-.17,1.56-.42,2.34h-8.36c-.17.65-.37,1.3-.37,1.99,0,1.17.76,1.73,1.84,1.73,1.92,0,2.38-1.39,2.61-2.04h3.91Zm-3.15-3.21c.07-.22.25-.8.25-1.34,0-.91-.59-1.52-1.65-1.52-1.84,0-2.51,1.58-2.95,2.86h4.35Z"/>
            <path class="cls-2" d="m197.94,42.8h-4.01l3.17-10.83h4.01l-.66,2.14c.79-1.04,1.77-2.34,3.64-2.34.47,0,.71.09.98.19l-.86,2.75c-.37-.17-.81-.41-1.52-.41-2.26,0-2.88,2.08-3.2,3.18l-1.55,5.31Z"/>
            <path class="cls-2" d="m214.88,42.8h-4.03l1.92-6.56c.17-.54.39-1.28.39-1.67,0-.43-.25-.97-1.08-.97-.52,0-1.08.24-1.52.61-.44.39-.59.69-.86,1.67l-2.04,6.93h-4.01l3.2-10.83h3.98l-.37,1.26c1.23-.84,2.51-1.45,4.08-1.45,1.87,0,2.73,1,2.73,2.21,0,.69-.22,1.43-.42,2.08l-1.97,6.74Z"/>
            <path class="cls-2" d="m222.11,38.03c-.96-.41-2.48-1.13-2.48-2.86,0-1.06.64-2.19,2.06-2.86,1.03-.5,2.24-.63,3.42-.63.89,0,4.92,0,4.92,2.62,0,.2-.02.37-.07.58l-3.37-.09c0-.13.02-.28.02-.41,0-.97-.96-1.17-1.6-1.17-.93,0-1.6.45-1.6,1.08,0,.78.79,1.1,1.87,1.58l1.2.45c1.06.48,2.46,1.08,2.46,2.84,0,1.13-.69,2.25-1.67,2.9-.84.56-2.11.97-4.08.97-2.66,0-5.41-.54-5.41-2.82,0-.26.05-.45.1-.74l3.61.09c0,.11-.02.26-.02.39,0,1.19,1.06,1.52,1.84,1.52,1.2,0,1.79-.67,1.79-1.34,0-.89-.86-1.26-1.84-1.65l-1.16-.48Z"/>
            <path class="cls-2" d="m243.15,39.37c-.22.61-.49,1.32-1.48,2.12-.79.65-2.38,1.56-5.36,1.56-3.17,0-5.29-1.02-5.29-3.66,0-1.28.49-3.16,1.18-4.4.81-1.54,2.36-3.29,6.44-3.29,2.41,0,5.29.61,5.29,3.64,0,.82-.17,1.56-.42,2.34h-8.36c-.17.65-.37,1.3-.37,1.99,0,1.17.76,1.73,1.84,1.73,1.92,0,2.38-1.39,2.61-2.04h3.91Zm-3.15-3.21c.07-.22.25-.8.25-1.34,0-.91-.59-1.52-1.65-1.52-1.84,0-2.51,1.58-2.95,2.86h4.35Z"/>
            <path class="cls-2" d="m258.52,31.97l-6.76,11.09c-1.23,1.95-1.4,2.23-1.89,2.73-1.3,1.32-2.78,1.6-4.3,1.6-.37,0-1.79-.04-2.95-.26l.74-2.32c.32.09.74.2,1.33.2,1.55,0,2.51-.82,2.51-2.32,0-.37-.05-.95-.07-1.19l-.69-9.53h3.96s.1,6.35.1,6.35v1.15c0,.28-.02.48-.05.82.27-.67.34-.84.91-1.91l3.37-6.41h3.81Z"/>
          </g>
          <g>
            <path class="cls-2" d="m154.64,64.64h-11.15l4.39-14.92h10.43l-.7,2.35h-6.09l-1.08,3.65h5.78l-.7,2.35h-5.75l-1.25,4.23h6.79l-.67,2.35Z"/>
            <path class="cls-2" d="m160.71,64.64h-3.93l4.34-14.92h3.93l-4.34,14.92Z"/>
            <path class="cls-2" d="m176.41,61.3c-.22.59-.48,1.29-1.44,2.07-.77.63-2.33,1.52-5.23,1.52-3.09,0-5.16-.99-5.16-3.57,0-1.25.48-3.08,1.15-4.29.79-1.5,2.3-3.21,6.28-3.21,2.35,0,5.16.59,5.16,3.55,0,.8-.17,1.52-.41,2.28h-8.15c-.17.63-.36,1.27-.36,1.94,0,1.14.74,1.69,1.8,1.69,1.87,0,2.33-1.35,2.54-1.99h3.81Zm-3.07-3.13c.07-.21.24-.78.24-1.31,0-.89-.58-1.48-1.61-1.48-1.8,0-2.45,1.54-2.88,2.79h4.24Z"/>
            <path class="cls-2" d="m190.37,61.24c-.53,1.56-1.94,3.66-6.4,3.66-2.35,0-5.37-.49-5.37-3.66,0-.76.14-1.48.31-2.11.29-1.08.86-2.81,2.52-4.01,1.73-1.23,3.77-1.29,4.68-1.29,1.13,0,5.18.08,5.18,3.21,0,.21-.02.34-.05.59h-3.72c.05-.3.1-.51.1-.78,0-.97-.62-1.46-1.56-1.46-1.2,0-1.78.63-2.18,1.27-.77,1.18-1.51,3.7-1.51,4.92,0,1.33.86,1.73,1.73,1.73,1.03,0,1.92-.46,2.47-2.07h3.81Z"/>
            <path class="cls-2" d="m196.68,60.58c-.24.87-.29,1.08-.29,1.37,0,.68.6.89,1.15.89.38,0,.72-.08,1.15-.17l-.55,1.84c-.72.15-1.49.32-2.57.32-.57,0-1.15-.04-1.68-.23-1.32-.42-1.53-1.23-1.53-1.97,0-.55.14-1.1.34-1.71l1.58-5.41h-1.58l.43-1.44h1.58l.6-2.05,4.08-.63-.79,2.68h1.99l-.43,1.44h-1.97l-1.51,5.07Z"/>
            <path class="cls-2" d="m203.75,64.64h-3.91l3.09-10.56h3.91l-.65,2.09c.77-1.01,1.73-2.28,3.55-2.28.46,0,.7.08.96.19l-.84,2.68c-.36-.17-.79-.4-1.49-.4-2.21,0-2.81,2.03-3.12,3.11l-1.51,5.18Z"/>
            <path class="cls-2" d="m213.25,64.64h-3.91l3.09-10.56h3.93l-3.12,10.56Zm3.57-12.19h-3.91l.77-2.62h3.91l-.77,2.62Z"/>
            <path class="cls-2" d="m228.95,61.24c-.53,1.56-1.94,3.66-6.4,3.66-2.35,0-5.37-.49-5.37-3.66,0-.76.14-1.48.31-2.11.29-1.08.86-2.81,2.52-4.01,1.73-1.23,3.76-1.29,4.68-1.29,1.13,0,5.18.08,5.18,3.21,0,.21-.02.34-.05.59h-3.72c.05-.3.1-.51.1-.78,0-.97-.62-1.46-1.56-1.46-1.2,0-1.77.63-2.18,1.27-.77,1.18-1.51,3.7-1.51,4.92,0,1.33.86,1.73,1.73,1.73,1.03,0,1.92-.46,2.47-2.07h3.81Z"/>
            <path class="cls-2" d="m233.8,64.64h-3.91l3.09-10.56h3.93l-3.12,10.56Zm3.57-12.19h-3.91l.77-2.62h3.91l-.77,2.62Z"/>
            <path class="cls-2" d="m242.29,60.58c-.24.87-.29,1.08-.29,1.37,0,.68.6.89,1.15.89.38,0,.72-.08,1.15-.17l-.55,1.84c-.72.15-1.49.32-2.57.32-.58,0-1.15-.04-1.68-.23-1.32-.42-1.53-1.23-1.53-1.97,0-.55.14-1.1.34-1.71l1.58-5.41h-1.58l.43-1.44h1.58l.6-2.05,4.08-.63-.79,2.68h1.99l-.43,1.44h-1.97l-1.51,5.07Z"/>
            <path class="cls-2" d="m259.1,54.08l-6.6,10.82c-1.2,1.9-1.37,2.18-1.85,2.66-1.27,1.29-2.71,1.56-4.2,1.56-.36,0-1.75-.04-2.88-.25l.72-2.26c.31.08.72.19,1.3.19,1.51,0,2.45-.8,2.45-2.26,0-.36-.05-.93-.07-1.16l-.67-9.3h3.86l.1,6.19v1.12c0,.27-.02.46-.05.8.26-.66.34-.82.89-1.86l3.29-6.25h3.72Z"/>
          </g>
        </g>
      </g>
      <rect class="cls-1" width="324.39" height="95.08"/>
    </g>
  </g>
</svg>