<?xml version="1.0" encoding="UTF-8"?>
<svg id="Layer_2" data-name="Layer 2" xmlns="http://www.w3.org/2000/svg" viewBox="0 0 308.84 95.08">
  <defs>
    <style>
      .cls-1 {
        fill: none;
      }

      .cls-1, .cls-2 {
        stroke-width: 0px;
      }

      .cls-2 {
        fill: #fff;
      }
    </style>
  </defs>
  <g id="logos">
    <g>
      <g>
        <path class="cls-2" d="m182.28,49h-8.7v8.6h-4.37v-20.07h4.37v8.23h8.7v-8.23h4.37v20.07h-4.37v-8.6Z"/>
        <path class="cls-2" d="m197.07,57.97c-4.33,0-7.89-1.73-7.99-6.53h4.37c.07,2.13,1.32,3.42,3.69,3.42,1.79,0,3.79-.88,3.79-2.88,0-1.56-1.35-2.06-3.62-2.71l-1.46-.41c-3.18-.91-6.3-2.13-6.3-5.75,0-4.47,4.16-5.96,7.99-5.96s7.28,1.35,7.31,5.82h-4.37c-.17-1.83-1.22-2.88-3.28-2.88-1.62,0-3.22.85-3.22,2.64,0,1.46,1.32,1.93,4.16,2.81l1.66.54c3.45,1.08,5.62,2.27,5.62,5.62,0,4.5-4.4,6.26-8.36,6.26Z"/>
        <path class="cls-2" d="m207.9,37.49h6.97c2.2,0,3.08.07,3.96.24,2.44.54,4.27,2.13,4.27,4.84s-1.62,3.93-3.99,4.54c2.71.51,4.74,1.9,4.74,4.87,0,4.57-4.5,5.62-8.02,5.62h-7.89v-20.11h-.03Zm7.01,8.36c1.93,0,3.86-.37,3.86-2.71,0-2.1-1.83-2.64-3.59-2.64h-3.05v5.35h2.78Zm.41,8.73c2.03,0,4.03-.47,4.03-2.91s-1.73-2.94-3.79-2.94h-3.45v5.86h3.22Z"/>
        <path class="cls-2" d="m235.19,57.97c-6.47,0-9.38-4.13-9.38-10.26s3.22-10.6,9.61-10.6c3.99,0,7.89,1.79,7.99,6.33h-4.5c-.24-2-1.56-3.05-3.49-3.05-3.93,0-5.11,4.23-5.11,7.45s1.18,6.91,4.98,6.91c1.96,0,3.42-1.05,3.72-3.08h4.54c-.51,4.57-4.2,6.3-8.36,6.3Z"/>
        <polygon class="cls-2" points="137.22 71.54 161.22 47.54 137.22 23.54 137.22 23.54 137.22 71.54"/>
        <polygon class="cls-2" points="89.26 71.54 65.29 47.54 89.26 23.54 89.26 23.54 89.26 71.54"/>
        <polygon class="cls-2" points="137.22 23.54 113.26 47.54 89.26 23.54 89.26 23.54 137.22 23.54"/>
        <polygon class="cls-2" points="89.26 71.54 113.26 47.54 137.22 71.54 137.22 71.54 89.26 71.54"/>
      </g>
      <rect class="cls-1" width="308.84" height="95.08"/>
    </g>
  </g>
</svg>