<?xml version="1.0" encoding="UTF-8"?>
<svg id="Layer_2" data-name="Layer 2" xmlns="http://www.w3.org/2000/svg" viewBox="0 0 325.08 95.08">
  <defs>
    <style>
      .cls-1 {
        fill: none;
      }

      .cls-1, .cls-2 {
        stroke-width: 0px;
      }

      .cls-2 {
        fill: #fff;
      }
    </style>
  </defs>
  <g id="logos">
    <g>
      <g>
        <polyline id="polyline3" class="cls-2" points="171.11 62.77 196.21 62.77 196.21 59.7 175.41 59.7 175.41 49.89 191.03 49.89 191.03 46.79 175.41 46.79 175.41 37.75 196.21 37.75 196.21 34.7 171.11 34.7 171.11 62.77"/>
        <polyline id="polyline5" class="cls-2" points="184.15 30.16 180.75 33.98 191.42 30.16 184.15 30.16"/>
        <polyline id="polyline7" class="cls-2" points="238.34 59.7 238.34 34.7 234.42 34.7 234.42 62.77 259.79 62.77 259.79 59.7 238.34 59.7"/>
        <path id="path9" class="cls-2" d="m212.47,34.7l-14.27,28.07h4.82l3.65-7.27h17.12l3.68,7.27h4.77l-14.28-28.07h-5.49m-3.99,17.29l6.73-13.41,6.8,13.41h-13.53Z"/>
        <path id="path11" class="cls-2" d="m157.49,51.03c6.43-1.72,7.06-6.5,7.02-8.21-.38-5.01-3.76-8.12-9.83-8.12h-17.69v28.07h4.03v-11.78h11.52l8.47,11.78h5.08s-6.1-7.92-8.61-11.74m-3.36-3.35h-13.11v-9.66h13.57c3.12,0,4.88,1.46,5.51,3.31.42,1.27.15,2.94-.54,4.07-1.13,1.88-3.29,2.28-5.43,2.28Z"/>
        <path id="path13" class="cls-2" d="m112.75,29.94c-11.38,0-19.14,8.03-19.14,17.74,0,10.23,8.57,17.45,19.14,17.45s19.13-7.12,19.13-17.45c0-9.72-7.86-17.74-19.13-17.74m-.14,31.71c-7.88,0-14.37-6.33-14.37-13.95s6.18-14.25,14.67-14.25,14.36,6.63,14.36,14.25-6.8,13.95-14.67,13.95Z"/>
        <polyline id="polyline15" class="cls-2" points="83.44 44.63 86.35 44.63 91.64 34.7 87.39 34.7 83.44 44.63"/>
        <polyline id="polyline17" class="cls-2" points="69.22 59.7 69.22 34.7 65.29 34.7 65.29 62.77 90.66 62.77 90.66 59.7 69.22 59.7"/>
      </g>
      <rect class="cls-1" width="325.08" height="95.08"/>
    </g>
  </g>
</svg>