<?xml version="1.0" encoding="UTF-8"?>
<svg id="Layer_2" data-name="Layer 2" xmlns="http://www.w3.org/2000/svg" viewBox="0 0 259.7 95.08">
  <defs>
    <style>
      .cls-1 {
        fill: none;
      }

      .cls-1, .cls-2 {
        stroke-width: 0px;
      }

      .cls-2 {
        fill: #fff;
      }
    </style>
  </defs>
  <g id="logos">
    <g>
      <path class="cls-2" d="m79.53,70.53c-3.85-.15-6.99-1.21-9.46-3.16-.47-.37-1.59-1.49-1.96-1.97-1-1.25-1.68-2.48-2.13-3.83-1.39-4.17-.68-9.64,2.05-15.65,2.33-5.14,5.94-10.24,12.22-17.31.93-1.04,3.68-4.08,3.7-4.08,0,0-.14.26-.33.58-1.63,2.74-3.03,5.96-3.79,8.75-1.22,4.48-1.08,8.32.43,11.3,1.04,2.05,2.82,3.83,4.83,4.81,3.51,1.72,8.65,1.86,14.93.42.43-.1,21.85-5.78,47.59-12.63,25.74-6.85,46.8-12.45,46.81-12.44,0,0-59.8,25.6-90.85,38.88-4.92,2.1-6.23,2.63-8.54,3.44-5.91,2.08-11.2,3.07-15.48,2.9h0Z"/>
      <rect class="cls-1" width="259.7" height="95.08"/>
    </g>
  </g>
</svg>