<?xml version="1.0" encoding="UTF-8"?>
<svg id="Layer_2" data-name="Layer 2" xmlns="http://www.w3.org/2000/svg" viewBox="0 0 239.94 95.08">
  <defs>
    <style>
      .cls-1 {
        fill: none;
      }

      .cls-1, .cls-2 {
        stroke-width: 0px;
      }

      .cls-2 {
        fill: #fff;
      }
    </style>
  </defs>
  <g id="logos">
    <g>
      <g id="Layer_1-2" data-name="Layer 1">
        <g id="Nissan_Badge" data-name="Nissan Badge">
          <path class="cls-2" d="m129.02,51.2c-.09.02-.43.02-.59.02h-11.2v2.6h11.39c.09,0,.76,0,.89-.02,2.32-.22,3.38-2.15,3.38-3.84s-1.11-3.6-3.21-3.8c-.41-.04-.76-.04-.91-.04h-7.44c-.33,0-.69-.02-.82-.07-.59-.15-.8-.67-.8-1.11,0-.39.22-.91.82-1.08.17-.04.37-.07.78-.07h10.74v-2.56h-10.91c-.46,0-.8.02-1.08.07-1.87.26-3.17,1.76-3.17,3.67,0,1.56.98,3.38,3.12,3.69.39.04.93.04,1.17.04h7.25c.13,0,.46,0,.52.02.82.11,1.11.72,1.11,1.26s-.33,1.08-1.04,1.22Z"/>
          <path class="cls-2" d="m107.8,51.2c-.09.02-.43.02-.56.02h-11.22v2.6h11.39c.09,0,.76,0,.89-.02,2.32-.22,3.38-2.15,3.38-3.84s-1.11-3.6-3.21-3.8c-.41-.04-.76-.04-.91-.04h-7.44c-.33,0-.69-.02-.82-.07-.59-.15-.8-.67-.8-1.11,0-.39.22-.91.82-1.08.17-.04.37-.07.78-.07h10.74v-2.56h-10.91c-.46,0-.8.02-1.08.07-1.87.26-3.17,1.76-3.17,3.67,0,1.56.98,3.38,3.12,3.69.39.04.93.04,1.17.04h7.25c.13,0,.46,0,.52.02.82.11,1.11.72,1.11,1.26s-.3,1.08-1.04,1.22h0Z"/>
          <rect class="cls-2" x="87.36" y="41.15" width="2.82" height="12.74"/>
          <polygon class="cls-2" points="81.13 53.89 81.13 41.15 78.31 41.15 78.31 50.65 68.92 41.15 65.29 41.15 65.29 53.89 68.11 53.89 68.11 44.34 77.57 53.89 81.13 53.89"/>
          <polygon class="cls-2" points="171.85 41.15 171.85 50.65 162.45 41.15 158.83 41.15 158.83 53.89 161.65 53.89 161.65 44.34 171.09 53.89 174.65 53.89 174.65 41.15 171.85 41.15"/>
          <path class="cls-2" d="m144.14,41.15l-7.94,12.74h3.43l1.41-2.28h9.26l1.41,2.28h3.41l-7.94-12.74h-3.04Zm4.71,8.05h-6.36l3.19-5.12,3.17,5.12Z"/>
          <path class="cls-2" d="m80.98,33.92c5.68-16.6,21.35-27.75,39.01-27.75s33.35,11.15,39.01,27.75l.04.13h12.43v-1.5l-5.16-.61c-3.19-.37-3.86-1.78-4.73-3.56l-.22-.43c-7.46-15.88-23.72-26.17-41.38-26.17s-33.91,10.28-41.38,26.21l-.22.43c-.87,1.78-1.54,3.19-4.73,3.56l-5.16.61v1.5h12.41l.07-.17Z"/>
          <path class="cls-2" d="m159.05,61l-.04.13c-5.68,16.6-21.35,27.73-39.01,27.73s-33.35-11.15-39.01-27.75l-.04-.13h-12.41v1.5l5.16.61c3.19.37,3.86,1.78,4.73,3.56l.22.43c7.46,15.93,23.72,26.21,41.38,26.21s33.91-10.28,41.38-26.19l.22-.43c.87-1.78,1.54-3.19,4.73-3.56l5.16-.61v-1.5h-12.45Z"/>
        </g>
      </g>
      <rect class="cls-1" width="239.94" height="95.08"/>
    </g>
  </g>
</svg>