<?xml version="1.0" encoding="UTF-8"?>
<svg id="Layer_2" data-name="Layer 2" xmlns="http://www.w3.org/2000/svg" viewBox="0 0 270.71 95.08">
  <defs>
    <style>
      .cls-1 {
        fill: none;
      }

      .cls-1, .cls-2 {
        stroke-width: 0px;
      }

      .cls-2 {
        fill: #fff;
      }
    </style>
  </defs>
  <g id="logos">
    <g>
      <path class="cls-2" d="m147.89,52.67h.14l1.99,9.52c.75,3.55,2.78,5.77,6.42,5.77,3.2,0,5.12-1.62,6.84-4.49l8.87-14.83,3.68,13.68c1.1,4.03,3.28,5.64,6.49,5.64,2.93,0,5.12-1.69,6.7-4.49l15.37-27.46c.69-1.28,1.02-2.5,1.02-3.62,0-3.22-2.54-5.7-6.22-5.7-3,0-5.47,1.75-7.11,4.89l-7.45,14.36-3.61-14.16c-.85-3.1-2.63-5.12-6.18-5.12-2.34,0-4.57.68-6.7,4.56l-7.78,14.69-2.6-13.94c-.71-3.68-3.29-5.3-6.45-5.3-3.61,0-6.36,2.55-6.36,6.25,0,.4,0,.68.14,1.62l.35,2.15h-.14c-3.46-6.58-10.1-10.81-18.7-10.81s-15.57,4.56-18.77,10.81h-.14l.48-3.03c.07-.48.14-1.14.14-1.49,0-3.62-2.4-5.57-5.8-5.57-2.93,0-5.53,1.69-6.36,5.64l-2.73,13.68-10.12-15.61c-1.76-2.76-3.61-3.64-5.86-3.64-2.78,0-5.4,1.41-6.15,5.04l-5.82,28.05c-.13.81-.2,1.62-.2,2.22,0,3.88,2.47,5.97,5.82,5.97,2.73,0,5.82-1.75,6.57-5.5l2.78-13.48,9.35,14.96c1.37,2.22,3.13,4.03,6.15,4.03,3.48,0,5.6-1.95,6.36-5.3l2.12-10h.14c1.79,9.52,9.77,16.51,21.24,16.51,11.13-.01,19.94-7.4,22.06-16.52Zm-21.54,4.68c-5.47,0-9.77-4.43-9.77-9.8,0-5.64,4.3-9.8,9.77-9.8s9.83,4.36,9.83,9.8-4.29,9.8-9.83,9.8Z"/>
      <rect class="cls-1" width="270.71" height="95.08"/>
    </g>
  </g>
</svg>