<?xml version="1.0" encoding="UTF-8"?>
<svg id="Layer_2" data-name="Layer 2" xmlns="http://www.w3.org/2000/svg" viewBox="0 0 322.21 95.08">
  <defs>
    <style>
      .cls-1 {
        fill: none;
      }

      .cls-1, .cls-2 {
        stroke-width: 0px;
      }

      .cls-2 {
        fill: #fff;
      }
    </style>
  </defs>
  <g id="logos">
    <g>
      <g>
        <path id="a" class="cls-2" d="m78.01,53.43c.26.66.18,1.51.05,2.03-.23.91-.84,1.85-2.67,1.85-1.71,0-2.75-.99-2.75-2.48v-2.66h-7.35v2.11c0,6.11,4.8,7.95,9.95,7.95s9.03-1.68,9.68-6.26c.33-2.37.09-3.92-.03-4.49-1.16-5.74-11.55-7.45-12.33-10.66-.11-.47-.12-.96-.03-1.44.19-.88.79-1.84,2.5-1.84,1.61,0,2.54.99,2.54,2.48v1.7h6.84v-1.93c0-5.97-5.36-6.9-9.23-6.9-4.87,0-8.85,1.61-9.58,6.08-.19,1.22-.23,2.31.06,3.69,1.19,5.59,10.92,7.21,12.33,10.76"/>
        <path class="cls-2" d="m94.61,33.78l-5.08,27.39h7.4l3.75-24.85h.15l3.65,24.85h7.36l-5.05-27.39h-12.19Zm41.38,0l-3.38,20.94h-.16l-3.37-20.94h-11.17l-.6,27.39h6.85l.17-24.62h.15l4.57,24.62h6.95l4.58-24.62h.15l.17,24.62h6.85l-.6-27.39h-11.16Z"/>
        <path id="a-2" data-name="a" class="cls-2" d="m167.05,53.38c.26.66.18,1.51.05,2.03-.23.91-.84,1.85-2.67,1.85-1.71,0-2.75-.99-2.75-2.48v-2.66h-7.35v2.11c0,6.11,4.8,7.95,9.95,7.95s9.03-1.68,9.68-6.26c.33-2.37.09-3.92-.03-4.49-1.16-5.74-11.55-7.45-12.33-10.66-.11-.47-.12-.96-.03-1.44.19-.88.79-1.84,2.5-1.84,1.61,0,2.54.99,2.54,2.48v1.7h6.84v-1.93c0-5.97-5.36-6.9-9.23-6.9-4.87,0-8.85,1.61-9.58,6.08-.19,1.22-.23,2.31.06,3.69,1.19,5.59,10.92,7.21,12.33,10.76"/>
        <path class="cls-2" d="m190.04,57.06c1.9,0,2.49-1.31,2.62-1.98.06-.3.06-.69.06-1.05v-20.26h6.93v19.63c0,.6-.02,1.2-.06,1.8-.48,5.11-4.52,6.77-9.56,6.77s-9.08-1.66-9.56-6.77c-.02-.27-.07-1.3-.06-1.8v-19.64h6.93v20.26c0,.36,0,.76.06,1.05.13.67.72,1.98,2.63,1.98m33.49-23.28l.37,21.5h-.15l-6.3-21.5h-10.16v27.1h6.73l-.37-22.24h.15l6.76,22.24h9.75v-27.1h-6.78Zm23.63,23c1.98,0,2.68-1.25,2.8-1.99.06-.3.06-.69.06-1.03v-3.99h-2.81v-3.99h9.7v7.34c0,.51-.01.89-.1,1.8-.45,4.99-4.78,6.77-9.63,6.77s-9.18-1.78-9.63-6.77c-.08-.91-.1-1.29-.1-1.8v-11.52c0-.49.06-1.35.12-1.8.61-5.12,4.76-6.77,9.61-6.77s9.11,1.63,9.61,6.76c.09.87.06,1.8.06,1.8v.92h-6.91v-1.54s0-.64-.08-1.04c-.13-.6-.64-1.99-2.74-1.99s-2.58,1.32-2.73,1.99c-.08.36-.12.85-.12,1.29v12.52c0,.35.01.73.06,1.04.13.73.82,1.99,2.8,1.99"/>
      </g>
      <rect class="cls-1" width="322.21" height="95.08"/>
    </g>
  </g>
</svg>