<?xml version="1.0" encoding="UTF-8"?>
<svg id="Layer_2" data-name="Layer 2" xmlns="http://www.w3.org/2000/svg" viewBox="0 0 224.47 95.08">
  <defs>
    <style>
      .cls-1 {
        fill: none;
      }

      .cls-1, .cls-2, .cls-3, .cls-4 {
        stroke-width: 0px;
      }

      .cls-2, .cls-4 {
        fill: #fff;
      }

      .cls-3 {
        fill: #007042;
      }

      .cls-4 {
        isolation: isolate;
        opacity: .99;
      }
    </style>
  </defs>
  <g id="logos">
    <g>
      <g>
        <path class="cls-2" d="m113.99,41.83s-.05.07-.08.09c.03-.03.05-.06.08-.09Z"/>
        <path class="cls-2" d="m104.99,33.86c-.32.01-.64.06-.95.13-.46.1-.78.52-.63,1.04-.07.45.03,1.27.74.95,1.09-1.51,3.02-.32,4.21-.21v-.43c-.65-1.03-2-1.54-3.37-1.49Z"/>
        <path class="cls-2" d="m118.47,33.98c-.14,0-.27.01-.41.02-.74.49-2.88.14-2.11,1.79,1.33-1.06,3.2-.32,4.53.21.49-.25.39-.74.42-1.16-.43-.8-1.45-.87-2.43-.85Z"/>
        <path class="cls-2" d="m112.23.36c-25.92,0-46.94,21.12-46.94,47.18s21.02,47.18,46.94,47.18,46.94-21.13,46.94-47.18S138.16.36,112.23.36Zm45.85,52.91c-4.81,1.37-7.97-3.72-12.64-2.96l.53,2.64c4.32.14,7.01,4.28,11.47,4.11-.63,1.27.28,4.6-2.52,3.27-2.92-.7-5.02-3.27-8.21-3.27-.39.71-.14,1.69-.21,2.52,3.37.53,5.79,3.38,9.16,3.9-.32,1.16-.63,2.46-1.58,3.16-2.74-.67-4.88-3.13-7.8-3.05l-.52,2.42c2.77.07,4.56,2.52,7.06,3.26.07,1.02-.85,1.93-1.37,2.85-2.21-.67-3.9-2.57-6.43-2.43-.03-.95.53-2.03.32-3.05-2.84.85-4.74-1.79-6.85-3.37-.06-5.18-5.51-8.57-5.8-13.43-.06-.97.09-2,.53-3.11,1.79-4.14,1.23-9.52-.74-13.38-.6-1.02-1.65-1.82-2.64-2.42,1.44,3.05,3.2,6.67,2.32,10.42-.1,2.9-1.81,5.68-1.83,8.48,0,1,.21,1.99.78,3,2.28,4.11,6.39,8.01,4.85,13.16-.43,1.58-1.69,2.81-2.01,4.42,2.67,2.21,5.2,4.71,8.75,4.84,1.26-.8.56-4.38,3.16-2.73l3.79,1.9c-.28,1.02-1.13,1.93-1.9,2.63-1.44-.7-2.84-1.54-4.64-1.47-.53.56-.98,1.19-.94,1.99,1.26.21,2.42.74,3.47,1.48-.49,1.06-1.44,1.72-2.32,2.52l-2.94-1.05c-.49.7-1.51,1.44-1.15,2.21.66.28,1.4.67,1.89,1.16-1.3,1.4-2.94,2.31-4.53,3.26-1.36-4.46-5.86-7.59-5.48-12.74l-.21-.21c-1.06,1.19-.7,3.09-.63,4.63,1.26,3.23,4.28,5.72,4.74,9.27-.53.91-1.72,1.09-2.63,1.48.11-6.39-9.58-11.23-3.37-17.69,2.07-3.16,5.54-6.18,4.31-10.54-1.26-4.21-5.73-6.81-5.69-11.53v-.37c1.03-4.92,4.12-10.15,1.59-15.38-.7-2.1-2.28-4.49-4.42-5.37,3.19,3.65,4.46,9.62,2.63,14.54-.92,1.96-2.19,4.29-2.31,6.59h0c-.07,1.2.18,2.4.95,3.53,2.42,3.94,6.63,8.26,4.21,13.38-2.74,4.11-7.51,8.28-4.85,13.69,1.93,3.23,4.92,6.45,4.11,10.42l-3.16,1.05c2.11-7.4-8.22-11.76-3.89-19.16,2.67-3.97,7.44-7.69,4.74-12.96-1.62-3.26-4.95-5.19-4.84-9.27l.11-.68c1.09-5.78,5.48-11.26,2.41-17.43-.81-1.83-2.42-3.69-4.21-4.74l-.11.11c3.58,3.48,4.67,9.2,2.74,13.79-.9,2.7-2.88,5.38-3.28,8.27-.19,1.36-.03,2.77.76,4.26,2.28,3.61,6.28,7.44,3.79,12.12-2.63,3.86-7.02,7.61-5.27,12.63,1.93,4.39,5.96,8.57,3.79,14.02l-3.26.74c2.6-5.31-1.3-10.57-3.58-15.17-2.77-6.6,5.96-9.76,6.1-15.8-.03-3.89-4.18-6.11-5.05-9.69-1.79-1.51-3.65.6-5.79.21-1.58.32-4.01-2.18-4.95.53-1.12,3.97-6.25,6.88-4,11.59,2.14,4.18,7.3,7.23,5.58,12.64-1.54,5.05-6.64,9.86-3.48,15.69-1.3-.42-3.72.38-3.69-1.69-2-7.05,6.53-11.17,3.89-18.22-1.22-4.32-6.81-6.71-5.58-11.9.91-4.28,5.71-7.27,5.04-11.95-.05-.39-.15-.8-.29-1.21-1.79-5.06-5.44-10.11-3.27-16.01.6-1.69,1.79-3.12,2.84-4.63-3.48,1.86-5.23,5.79-5.16,9.79-.15,4.35,3.06,8.08,3.52,12.06.18,1.61-.09,3.25-1.21,5-2.28,3.09-5.26,6.36-3.89,10.43,1.3,4.11,6.43,6.6,6.11,11.37-.03,5.65-6.6,9.17-4.74,15.49l-3.27-1.06c-1.3-5.61,4.67-8.49,4.74-13.68.84-5.98-6.78-8.19-6.32-14.02-.03-4.42,3.86-7.23,5.58-10.95.29-.91.39-1.76.35-2.58-.21-4.12-3.92-7.33-3.3-11.96.21-3.41,1.37-6.39,3.58-8.95-3.05,1.23-4.31,4.74-5.16,7.69-1.46,4.73,2.03,8.98,2.38,13.22.15,1.87-.3,3.73-2.06,5.63-2.53,2.98-5.09,6.74-3.27,10.75,1.93,4.42,8.01,7.86,5.37,13.37-1.44,3.47-4.88,6.11-4.74,10.21-.91-.39-1.86-.77-2.63-1.47,0-5.23,7.44-8.5,3.89-14.01-.32,1.09-.38,2.57-.63,3.79-1.23,3.2-3.86,5.76-4.85,9.06-1.65-.64-3.37-1.97-4.74-3.38l1.9-1.16c-.21-.7-.77-1.3-1.26-1.9-1.23-.17-2.04.64-3.06.95-.88-.77-1.72-1.48-2.42-2.42.63-1.79,5.55-.31,3.06-3.26-1.68-1.05-3.37.45-4.85,1.15l-2-2.52c1.72-1.05,3.44-2.53,5.58-2.1.53.95.56,2.34,1.58,2.84,3.62-.07,6.18-2.81,8.95-4.95-1.93-2.88-3.51-6.85-1.79-10.32,1.38-3.48,4.96-6.42,5.12-10.27.03-.87-.1-1.8-.48-2.79-1.9-4.88-2.57-11.48,1.05-15.8-1.97.53-3.12,2.98-3.79,4.84-2.17,4.77.58,9.18.67,13.75.01.82-.05,1.64-.25,2.47-1.86,3.76-4.88,7.05-5.37,11.37-2.14,1.37-3.9,3.76-6.95,2.95-.11.81.14,2.04.42,2.95-2.42-.1-4.07,1.68-6.11,2.52-1.09-.35-1.37-1.75-1.79-2.73,2.39-.81,4.11-3.2,6.85-3.16.32-.88-.18-1.69-.32-2.53-3.41-1.51-8.81,7.48-9.26-.32,3.41-.21,5.58-3.37,8.95-3.69l.1-2.52c-3.83-.39-6.29,3.55-10.11,3.16l-.84-3.37c4.42.27,7.06-3.69,11.28-3.9.56-.74.62-1.82.74-2.84-4.6-.6-7.76,4.5-12.64,2.95,0,0-.17-2.12-.26-3.32h0c-.03-.47-.06-.79-.06-.79,4.35,1.69,8.18-1.44,11.9-3.05.95-.28,2.42.21,2.85-.85-.04-.8,1.44-1.75.21-2.31-5.44-.74-9.06,5.83-14.64,2.84l-.42-.84c1.16-15.87,10.11-31.21,24.96-38.75,6.01-3.44,13.49-5.19,21.02-5.25,9.1-.08,18.28,2.31,25.12,7.15,6.64,4.07,12.99,10.78,16.43,17.59,3.29,5.97,4.81,12.66,5.26,19.79-5.76,4.35-9.62-4.1-15.49-2.21.32.91.49,1.86,1.16,2.63,5.2-.04,8.78,5.41,14.22,3.26v.79c.04,1.19.15,2.21-.31,3.43Z"/>
        <path class="cls-2" d="m92.25,30.3c-.78,1.09-2.28,1.69-3.37,2.63-1.79,1.75-3.97,3.9-5.27,6.11-4.39-.88-7.9,1.69-11.59,3.16-1.4.28-3.26.42-4.42-.53,3.48-5.72,8.38-10.99,7.16-18.54.15-.25.33-.33.53-.32.33.02.69.29.95.43,2.71,2.1,4,5.02,4.32,8.21,3.41-1.3,8.03-3.55,11.69-1.16Z"/>
        <path class="cls-2" d="m156.71,41.67c-3.79,2.53-7.38-1.37-10.95-2.32-1.58-.24-3.44-.45-4.95-.21-2.17-3.37-5.09-6.53-8.63-8.42.21-1.16,1.82-1.23,2.95-1.37,3.12-.31,5.86.98,8.43,2.31.49-1.16.7-2.46,1.04-3.69.85-2.07,2.51-4.18,4.65-5.06.45.07.77.56.63,1.05-1.37,7.16,3.55,12.22,6.85,17.69Z"/>
        <path class="cls-2" d="m126.59,21.14c-.21-2.03,1.33-4.18,1.69-6.22-3.86.25-6.92,2.57-10.11,4.43-.74-1.79-1.48-3.58-2.21-5.37l4.21-4,.11-.53-5.69-.32c-.98-1.72-1.37-3.79-2.52-5.37-.95,1.79-1.59,3.69-2.53,5.48l-5.68.32v.42l4.31,3.89c-.53,2-1.02,4.18-2.31,5.69-2.53-1.51-5.02-3.16-7.79-4.21-.67-.22-1.62-.57-2.21-.11.87,1.93,2.1,4.01,1.9,6.12-1.16-.21-2.07-.96-3.16-1.27-1.3-.36-2.85-1.05-4.11-.63,2.1,2.95,3.82,6.03,4.42,9.58,6.99-3.37,15.14-5.23,23.6-3.79,3.97.63,7.62,2.25,11.16,3.58.14-3.72,2.49-6.71,4.11-9.69-2.6-.14-4.77,1.34-7.16,2Zm-10.53,0c-2.64-.28-5.41.07-7.9.11-.28-.28-.84-.7-.32-1.06l4-3.05c1.65.95,3.41,2.18,4.74,3.48l-.52.52Z"/>
        <path class="cls-4" d="m119.95,37.67c-1.23.78-3.02.32-4.32,0-.77.25-.8,1.38-1.68,1.59l-.54-.42c-.45-1.93-.74-4.67,1.05-6,2-.81,4.36-1.16,6.43-.53.39-.67-.21-1.19-.32-1.79-.98-2.18-3.23-3.06-5.27-3.59-1-.12-2.04-.21-3.06-.21-.2,0-.39,0-.58,0-2.88.06-5.63.8-7.31,3.17-.24.67-1.3,1.61-.32,2.21,2.21-.14,4.73-.42,6.21,1.48,0,1.69,1.09,3.93-.74,4.74-1.51-1.4-3.3.6-4.95-.53-.77-.46-1.26.08-1.58.74-.46,4.35,1.82,9.16,5.9,11.58,1.65.6,3.87,1.16,5.59.32,4.14-1.93,5.86-6.35,6.63-10.42-.1-.77-.07-2.28-1.16-2.32Zm-10.3,3.82c.41-.47.81-.48,1.21-.39h0c.32.07.65.19.98.19.56-.02,1.19-.66,2.1.24.1.1.09.21.05.29,0,0,0,0,0,0-.02.04-.05.07-.08.09,0,0,0,0,0,0,0,0-.02,0-.03.01-.5.17-.82.31-1.05.41-.44.2-.58.27-1.12.28-.45-.06-.73-.2-1.07-.35-.14-.06-.3-.13-.49-.2-.14-.05-.29-.09-.47-.14-.22-.1-.15-.27-.03-.44Zm2.4,5.77c-1.9.14-2.32-1.41-3.69-2.32l-.1-.63c2.53.39,5.3-.1,7.58.22-.84,1.26-2.1,2.84-3.79,2.74Z"/>
        <path class="cls-4" d="m113.99,41.83s-.05.07-.08.09c.03-.03.05-.06.08-.09Z"/>
        <path class="cls-3" d="m113.99,41.83s-.05.07-.08.09c.03-.03.05-.06.08-.09Z"/>
        <g id="text4354">
          <path id="path4430" class="cls-2" d="m146.05,93.83v-4.5h-1.61v-.92h4.31v.92h-1.61v4.5h-1.09Z"/>
          <path id="path4432" class="cls-2" d="m149.45,93.83v-5.42h1.64l.98,3.7.97-3.7h1.64v5.42h-1.02v-4.27l-1.08,4.27h-1.05l-1.07-4.27v4.27h-1.02Z"/>
        </g>
      </g>
      <rect class="cls-1" width="224.47" height="95.08"/>
    </g>
  </g>
</svg>