<?xml version="1.0" encoding="UTF-8"?>
<svg id="Layer_2" data-name="Layer 2" xmlns="http://www.w3.org/2000/svg" viewBox="0 0 454.05 95.08">
  <defs>
    <style>
      .cls-1 {
        fill: none;
      }

      .cls-1, .cls-2 {
        stroke-width: 0px;
      }

      .cls-2 {
        fill: #fff;
      }
    </style>
  </defs>
  <g id="logos">
    <g>
      <g>
        <path id="path4213" class="cls-2" d="m79.9,41.04h-6.1v15.29h-2.47v-15.29h-6.04v-2.28h14.61v2.28"/>
        <path id="path4215" class="cls-2" d="m98.51,38.51c-4.13,0-6.72,2.65-6.72,2.65-2.65,2.65-2.65,6.35-2.65,6.35,0,3.76,2.53,6.35,2.53,6.35,2.59,2.71,6.84,2.71,6.84,2.71,4.31,0,6.96-2.77,6.96-2.77,2.53-2.53,2.53-6.29,2.53-6.29,0-3.7-2.53-6.35-2.53-6.35-2.65-2.65-6.96-2.65-6.96-2.65Zm0,2.34c3.02,0,4.93,1.91,4.93,1.91,1.97,1.91,1.97,4.75,1.97,4.75,0,2.84-1.97,4.81-1.97,4.81-1.91,1.85-4.93,1.85-4.93,1.85-2.96,0-4.81-1.85-4.81-1.85-1.91-1.97-1.91-4.81-1.91-4.81,0-2.84,1.91-4.75,1.91-4.75,1.85-1.91,4.81-1.91,4.81-1.91Z"/>
        <path id="path4219" class="cls-2" d="m136.11,56.32h-2.53v-13.68l-5.42,6.78h-.43l-5.36-6.78h-.06v13.68h-2.53v-17.57h2.34l5.86,7.21,5.86-7.21h2.28v17.57"/>
        <path id="path4221" class="cls-2" d="m166.74,56.32h-2.53v-13.68h-.06l-5.36,6.78h-.43l-5.42-6.78v13.68h-2.53v-17.57h2.34l5.79,7.21,5.79-7.21h2.4v17.57"/>
        <path id="path4223" class="cls-2" d="m190.1,38.76h3.02l-6.53,8.26v9.31h-2.47v-9.31l-6.53-8.26h3.08l4.75,6.1,4.68-6.1"/>
        <path id="path4225" class="cls-2" d="m261.23,38.76v17.57h-2.47v-7.64h-9.86v7.64h-2.53v-17.57h2.53v7.64h9.86v-7.64h2.47"/>
        <path id="path4227" class="cls-2" d="m274.24,56.32h-2.53v-17.57h2.53v17.57"/>
        <path id="path4229" class="cls-2" d="m287.06,54.04h7.89v2.28h-10.35v-17.57h2.47v15.29"/>
        <path id="path4231" class="cls-2" d="m311.59,41.04h-6.9v4.87h6.9v2.28h-6.9v8.14h-2.53v-17.57h9.43v2.28"/>
        <path id="path4233" class="cls-2" d="m322.87,56.32h-2.47v-17.57h2.47v17.57"/>
        <path id="path4235" class="cls-2" d="m346.84,55.09s-3.14,1.48-6.66,1.48c0,0-4.07,0-6.66-2.53,0,0-2.65-2.53-2.65-6.41,0,0,0-3.82,2.65-6.53,0,0,2.77-2.59,6.72-2.59,0,0,2.77,0,6.29,1.54v2.53s-3.02-1.73-6.35-1.73c0,0-2.84,0-4.81,1.97,0,0-1.91,1.91-1.91,4.68,0,0,0,2.96,1.91,4.81,0,0,2.03,1.85,5.12,1.85l3.82-.62v-3.7h-3.33v-2.16h5.86v7.4"/>
        <path id="path4237" class="cls-2" d="m366.44,41.04h-7.52v5.24h7.27v2.28h-7.27v5.49h7.77v2.28h-10.23v-17.57h9.98v2.28"/>
        <path id="path4241" class="cls-2" d="m375.26,38.76v17.57h2.53v-7.64h1.05c1.05,0,1.91.62,1.91.62,1.11.92,2.71,3.45,2.71,3.45l2.28,3.57h3.02l-2.34-3.51c-2.47-3.88-3.88-4.87-3.88-4.87,2.9-1.17,2.9-4.25,2.9-4.25,0-2.28-1.54-3.64-1.54-3.64-1.54-1.29-4.25-1.29-4.25-1.29h-4.38Zm2.53,2.22h1.6c3.45,0,3.45,2.59,3.45,2.59,0,2.84-3.45,2.84-3.45,2.84h-1.6v-5.42Z"/>
        <path id="path4267" class="cls-2" d="m205.33,38.76v17.57h26.69v-17.57h-26.69Zm1.79,1.79h23.11v1.85h-23.11v-1.85Zm0,3.64h10.66v6.78h-10.66v-6.78Zm12.45,0h10.66v6.78h-10.66v-6.78Zm-12.45,8.57h23.11v1.79h-23.11v-1.79Z"/>
      </g>
      <rect class="cls-1" width="454.05" height="95.08"/>
    </g>
  </g>
</svg>