<?xml version="1.0" encoding="UTF-8"?>
<svg id="Layer_2" data-name="Layer 2" xmlns="http://www.w3.org/2000/svg" viewBox="0 0 283.47 95.08">
  <defs>
    <style>
      .cls-1 {
        fill: none;
      }

      .cls-1, .cls-2 {
        stroke-width: 0px;
      }

      .cls-2 {
        fill: #fff;
      }
    </style>
  </defs>
  <g id="logos">
    <g>
      <g>
        <g>
          <g>
            <polygon class="cls-2" points="65.29 18.29 65.29 19.7 71.02 19.7 71.02 35.93 73.36 35.93 73.36 19.7 79.06 19.7 79.06 18.29 65.29 18.29"/>
            <path class="cls-2" d="m90.09,35.92l-4.18-7.13c-.39.02-.78.05-1.15.05h-1.54v7.08h-2.09v-15.7h3.84c3.45,0,6.19,1.16,6.19,4.07,0,2.29-1.49,3.54-3.4,4.12l4.75,7.51h-2.43Zm-5.64-14.7c-.44,0-1.23.02-1.23.02v6.58h1.28c.89,0,4.44-.08,4.44-3.29s-3.37-3.32-4.49-3.32"/>
            <path class="cls-2" d="m106.11,32.96c-.86,2.31-3.4,3.17-5.75,3.17-1.78,0-3.14-.35-4.05-.93-2.01-1.28-2.17-4.17-2.17-6.26v-8.72h2.09v9.27c0,1.18.11,2.91.81,3.92.78,1.11,2.04,1.53,3.45,1.53,1.78,0,3.55-.63,4.31-2.31.31-.7.52-1.96.52-3.62v-8.79h1.31v9.04c0,1.58-.21,2.84-.52,3.69"/>
            <path class="cls-2" d="m113.48,36.12c-1.52,0-3.14-.53-4.36-1.36l.55-.93c.94.83,2.17,1.28,3.45,1.28,1.83,0,3.27-.95,3.27-2.54,0-1.94-1.65-3.19-3.55-4.4-1.75-1.1-3.53-2.19-3.53-4.15,0-2.76,2.35-4.02,4.76-4.02,1.46,0,2.72.48,3.84,1.23l-.63.93c-.91-.73-1.91-1.21-3.14-1.21-1.7,0-2.82.96-2.82,2.34,0,1.46,2.04,2.71,3.27,3.44,1.83,1.08,4,2.71,4,5.05,0,2.56-2.14,4.32-5.1,4.32"/>
            <polygon class="cls-2" points="126.28 21.47 126.28 35.92 124.19 35.92 124.19 21.47 119.09 21.47 119.09 20.22 131.35 20.22 131.35 21.47 126.28 21.47"/>
          </g>
          <g>
            <path class="cls-2" d="m75.67,56.95c-5.18,0-9.33-3.27-9.33-9.03s4.19-9.06,9.33-9.06c2.5,0,5.03.93,6.72,2.48l-.93,1.19c-1.31-1.5-3.49-2.46-5.79-2.46-3.75,0-6.66,3.3-6.66,7.85s2.91,7.59,6.66,7.59c2.56,0,4.83-1.02,6.34-2.82l.93.88c-1.72,2.06-4.33,3.39-7.27,3.39"/>
            <path class="cls-2" d="m92.22,56.93c-4.93,0-8.02-3.72-8.02-8.07s3.09-8.04,8.02-8.04,8.02,3.69,8.02,8.04-3.09,8.07-8.02,8.07m0-15.07c-3.92,0-5.56,3.09-5.56,7.01s1.64,7.04,5.56,7.04,5.56-3.12,5.56-7.04-1.64-7.01-5.56-7.01"/>
            <path class="cls-2" d="m111.1,56.73l-4.14-7.14c-.39.03-.78.05-1.14.05h-1.53v7.08h-2.07v-15.7h3.8c3.42,0,6.13,1.15,6.13,4.07,0,2.29-1.47,3.54-3.36,4.12l4.71,7.51h-2.41Zm-5.59-14.7c-.44,0-1.22.03-1.22.03v6.58h1.27c.88,0,4.4-.08,4.4-3.29s-3.34-3.32-4.45-3.32"/>
            <path class="cls-2" d="m119.38,50.15h-2.04v6.58h-2.07v-15.7h4.24c3.42,0,6.26,1.15,6.26,4.12,0,3.54-3.42,5-6.39,5m-.75-8.12c-.44,0-1.29.03-1.29.03v7.09h1.53c.88,0,4.61-.13,4.61-3.69s-3.73-3.42-4.84-3.42"/>
            <path class="cls-2" d="m135.19,56.93c-4.93,0-8.02-3.72-8.02-8.07s3.09-8.04,8.02-8.04,8.02,3.69,8.02,8.04-3.09,8.07-8.02,8.07m0-15.07c-3.92,0-5.56,3.09-5.56,7.01s1.64,7.04,5.56,7.04,5.56-3.12,5.56-7.04-1.64-7.01-5.56-7.01"/>
            <path class="cls-2" d="m154.06,56.73l-4.14-7.14c-.39.03-.78.05-1.14.05h-1.53v7.08h-2.07v-15.7h3.8c3.42,0,6.13,1.15,6.13,4.07,0,2.29-1.47,3.54-3.36,4.12l4.71,7.51h-2.41Zm-5.59-14.7c-.44,0-1.22.03-1.22.03v6.58h1.27c.88,0,4.4-.08,4.4-3.29s-3.34-3.32-4.45-3.32"/>
            <path class="cls-2" d="m169.22,56.73l-2.07-4.97h-6.21l-2.07,4.97h-1.47l6.62-15.7h.88l6.57,15.7h-2.25Zm-5.15-12.46l-2.67,6.36h5.28l-2.61-6.36Z"/>
            <polygon class="cls-2" points="176.23 42.28 176.23 56.73 174.16 56.73 174.16 42.28 169.11 42.28 169.11 41.03 181.25 41.03 181.25 42.28 176.23 42.28"/>
            <rect class="cls-2" x="182.96" y="41.03" width="2.07" height="15.7"/>
            <path class="cls-2" d="m195.75,56.93c-4.93,0-8.02-3.72-8.02-8.07s3.09-8.04,8.02-8.04,8.02,3.69,8.02,8.04-3.09,8.07-8.02,8.07m0-15.07c-3.92,0-5.56,3.09-5.56,7.01s1.64,7.04,5.56,7.04,5.56-3.12,5.56-7.04-1.64-7.01-5.56-7.01"/>
            <polygon class="cls-2" points="216.8 41.03 216.8 52.16 208.21 41.03 206.27 41.03 206.27 56.73 207.56 56.73 207.56 43.57 217.86 56.73 218.1 56.73 218.1 41.03 216.8 41.03"/>
          </g>
        </g>
        <g>
          <path class="cls-2" d="m172.18,27.64c.73-.33.76-.82,1.07-.65.68.37,1.1.09,1.71.02.66-.07,1.23.14.77-.63-.48-.28-1.28-.69-1.77-.75-.34-.04-.73-.09-1.11-.03-.07.19-.27.44-.41.68-.27.47-.44.79-.72,1.11-.28.32-.27.58.46.25"/>
          <path class="cls-2" d="m217.97,35.92v-6.21s-10.45,3.93-16.02,2.85c0,0-2.56-.22-4.56-1.56,0,0-.7-.66-1.22-.54,0,0-1.46-.1-5.75,2.6,0,0-3.7,2.75-3.91,2.86h11.87s-2.08-1.71-2.59-3.27l-.03-.85s3.17,1.86,5.67,2.21c0,0,2.66.86,2.9,1.9h13.64Z"/>
          <path class="cls-2" d="m204.65,26.68s11.66-1.6,13.31-2.15v2.12s-6.59,2.92-13.31.03"/>
          <path class="cls-2" d="m186.64,20.22h14.67s-12.89,2.14-12.89,2.14c0,0-1.47.23-2.05-.51-.49-.63,0-1.45.27-1.63"/>
          <path class="cls-2" d="m210.49,20.22l-21.77,3.95c-1.35.21-2.37.35-3.58-.54-1.77-1.3-.9-3.39-.9-3.39h-13.27s0,.01,0,.01c.23.32.28.8.7.85.42.05,1.22.2,1.2.55-.03.36.05.86.78.35.51-.36.91-.56,1.6-.32.77.27.65.48,1.49.67.13-.01.99-.7,1.67-.68,1.08.04,1.65.33,1.67.95.01.57-.47,1.32-1.05,1.66-.74.44-2.54.7-2.8.44.05.08-.19.27-.16.31.14.18.82.51,1.1.91.29.4.43,1.15.04,1.9-.79,1.54-3.9,3.18-4.34,4.1-.19.39-.08.64-.63.72-.55.07-1.3.03-1.79-.17-.49-.2-.96-.67-1.07-.97-.1-.3-.04-.61.25-.82.29-.22,1.17-.38,1.58-.54.24-.09-.03-.21-.2-.23-.23-.04-.36-.11-.53-.41-.17-.3.05-.42.05-.51,0-.09-.21-.14-.69-.25-.31-.08-.61-.05-.77-.13-.16-.09-.51-.42-.26-.78.21-.29,1.09-1.29,1.15-1.86.06-.6.07-1.4-.71-1.51-1.79-.26-.83-.7-.53-1.06.27-.33.91-.63,1.36-1.03.44-.4-.01-.6-.33-.35-.32.25-.72-.31-.82-.64-.07-.22-.25-.79-.36-1.16h-32.44s0,15.68,0,15.68h18.21c.56-1.21,2.34-2.62,2.34-2.62-3.53.62-4.4-.09-4.4-.09,1.01-.71,1.64-1.65,1.64-1.65.14-.24-.11-.33-.11-.33-.35-.1-.89-.18-.89-.18-3.19-.69-3.66-2.93-3.66-2.93,1.12-.34,3.32-.11,3.32-.11-2.77-3.71-1.66-5.46-1.66-5.46,1.6.03,3.2,2.65,3.2,2.65.36-2.48,1.88-4.33,1.88-4.33.26-.41.48-.26.43.33-.05.6-.1,1.15-.02,1.78.59,5.14,4.12,7.96,4.12,7.96,2.2,1.87,4.97,1.81,4.97,1.81,0,0,.1,1.42.98,1.87-.41,1.08-1.43,1.31-1.43,1.31h9.67c-1.23-.54-1.66-1.42-.95-1.82.69-.39,1.52-.3,3.01.05.95.22,2.22.39,2.84.08.64-.32-3.48-1.18-2.8-1.91.35-.38,1.9.1,3.12.16,2.03.12,3.9-.11,3.82-.45-.1-.41-4.77-.7-4.42-1.38.2-.38,2.33-.1,3.78-.36,3.83-.7,5.69-1.7,1.68-1.34-3.84.34-3.56-.4-1.43-.85,1.73-.37,4.86-1.45,7.77-2.24,7.33-1.98,12.01-.72,12.01-.72.84.13,3.02-.14,3.02-.14,2.94-.27,11.82-2.21,11.82-2.21v-2.57s-7.47-.01-7.47-.01Zm-43.48,10.76c-.08-.35.03-1,.24-.96.22.04.95.29,1.19.5.1.09.35.43.3.65-.04.22-.08.45-.6.51-.53.06-.65.09-.87-.08-.22-.17-.18-.28-.26-.63m3.91,3.05c-.31.61-1.53.32-2.26.11-.13-.04-.62-.25-.91-.53-.29-.28-.34-.89,0-.98,0,0,.51-.03.88-.04.36,0,.66.37,1.16.62.5.25,1.39.33,1.39.33,0,0-.08.14-.26.49"/>
        </g>
        <g>
          <rect class="cls-2" x="67.03" y="60.01" width="2.19" height="16.6"/>
          <polygon class="cls-2" points="85.71 61.82 85.71 63 90.46 63 90.46 76.61 92.41 76.61 92.41 63 97.14 63 97.14 61.82 85.71 61.82"/>
          <polygon class="cls-2" points="98.79 61.82 98.79 76.61 107.45 76.61 107.45 75.43 100.74 75.43 100.74 69.27 105.52 69.27 105.52 68.09 100.74 68.09 100.74 62.77 107.2 62.77 107.2 61.82 98.79 61.82"/>
          <path class="cls-2" d="m118.21,76.61l-3.9-6.72c-.37.02-.73.05-1.07.05h-1.44v6.67h-1.95v-14.79h3.58c3.22,0,5.78,1.09,5.78,3.83,0,2.15-1.39,3.33-3.17,3.88l4.44,7.08h-2.27Zm-5.26-13.84c-.41,0-1.15.02-1.15.02v6.2h1.2c.83,0,4.14-.07,4.14-3.1s-3.14-3.12-4.19-3.12"/>
          <path class="cls-2" d="m141.34,64.87l2.46,5.99h-4.97l2.51-5.99Zm-.05-3.05l-6.24,14.79h1.39l1.95-4.68h5.85l1.95,4.68h2.12l-6.19-14.79h-.83Z"/>
          <polygon class="cls-2" points="146.27 61.82 146.27 63 151.02 63 151.02 76.61 152.97 76.61 152.97 63 157.7 63 157.7 61.82 146.27 61.82"/>
          <rect class="cls-2" x="159.48" y="61.82" width="1.95" height="14.79"/>
          <path class="cls-2" d="m171.93,76.79c-4.64,0-7.56-3.5-7.56-7.6s2.91-7.57,7.56-7.57,7.56,3.48,7.56,7.57-2.91,7.6-7.56,7.6m0-14.2c-3.69,0-5.24,2.91-5.24,6.6s1.55,6.63,5.24,6.63,5.24-2.93,5.24-6.63-1.55-6.6-5.24-6.6"/>
          <polygon class="cls-2" points="191.96 61.82 191.96 72.3 183.87 61.82 182.04 61.82 182.04 76.61 183.26 76.61 183.26 64.21 192.96 76.61 193.18 76.61 193.18 61.82 191.96 61.82"/>
          <path class="cls-2" d="m201.34,64.87l2.46,5.99h-4.97l2.51-5.99Zm-.05-3.05l-6.24,14.79h1.39l1.95-4.68h5.85l1.95,4.68h2.12l-6.19-14.79h-.83Z"/>
          <polygon class="cls-2" points="209.92 61.82 209.92 76.61 218.18 76.61 218.18 75.43 211.87 75.43 211.87 61.82 209.92 61.82"/>
          <polygon class="cls-2" points="132.22 61.82 132.22 72.31 124.13 61.82 122.3 61.82 122.3 76.61 123.52 76.61 123.52 64.21 133.22 76.61 133.44 76.61 133.44 61.82 132.22 61.82"/>
          <polygon class="cls-2" points="82.83 61.81 82.83 72.3 74.74 61.81 72.91 61.81 72.91 76.6 74.13 76.6 74.13 64.21 83.82 76.6 84.05 76.6 84.05 61.81 82.83 61.81"/>
        </g>
      </g>
      <rect class="cls-1" width="283.47" height="95.08"/>
    </g>
  </g>
</svg>