<?xml version="1.0" encoding="UTF-8"?>
<svg id="Layer_2" data-name="Layer 2" xmlns="http://www.w3.org/2000/svg" viewBox="0 0 230.14 95.08">
  <defs>
    <style>
      .cls-1 {
        fill: none;
      }

      .cls-1, .cls-2 {
        stroke-width: 0px;
      }

      .cls-2 {
        fill: #fefcfc;
      }
    </style>
  </defs>
  <g id="logos">
    <g>
      <g>
        <path class="cls-2" d="m80.45,21.36c-1.19,3.73-2.39,7.46-3.6,11.24h-4.76c-2.26-6.06-4.52-12.14-6.81-18.29h6.05c1.08,3.49,2.16,6.99,3.24,10.49.06,0,.12-.01.18-.02,1.02-3.48,2.05-6.95,3.08-10.46h5.38c1.03,3.49,2.06,6.96,3.08,10.43.07,0,.14-.02.21-.02,1.07-3.46,2.14-6.93,3.21-10.42h6.04c-2.29,6.15-4.55,12.24-6.82,18.33h-4.73c-1.19-3.75-2.38-7.49-3.58-11.24l-.19-.04Z"/>
        <path class="cls-2" d="m156.42,80.66c-.23.16-.46.12-.67.12-1.63,0-3.25,0-4.89,0-.33-.67-.02-1.35-.23-1.97-.07-.01-.17-.06-.19-.04-2.35,3.05-7.17,3.24-10.4.88-5.11-3.72-5.05-12.62.15-16.21,3.42-2.35,7.35-1.95,10.36,1.12.35-.68-.03-1.44.29-2.11h5.58v18.2Zm-14.32-9.11c0,2.62,1.87,4.67,4.28,4.66,2.42,0,4.38-2.05,4.4-4.6.02-2.53-1.95-4.65-4.33-4.66-2.45,0-4.34,1.99-4.35,4.59Z"/>
        <path class="cls-2" d="m81.14,40.5v-2.03h5.74v18.17h-5.74v-2.26c-1.1,1.31-2.25,2.18-3.73,2.56-3.83.99-8-.92-9.68-4.6-1.51-3.31-1.5-6.68.2-9.94,1.81-3.49,5.91-5.24,9.57-4.2,1.41.4,2.52,1.23,3.65,2.3Zm.02,7.09c.03-2.6-1.84-4.66-4.25-4.69-2.43-.04-4.37,1.96-4.43,4.56-.06,2.54,1.9,4.69,4.28,4.7,2.45.01,4.37-1.98,4.4-4.56Z"/>
        <path class="cls-2" d="m105.31,69.98c.05,7.9-4.94,11.66-10.87,11.28-3.33-.22-6.1-1.55-7.92-4.45-3.41-5.45-.91-14,7.46-14.84,1.89-.19,3.78-.05,5.55.73,3.86,1.7,5.71,4.71,5.78,7.28Zm-14.39,1.58c0,1.79.74,3.32,2.02,4.09,2.13,1.28,4.79.58,5.98-1.58,1.32-2.4.46-5.55-1.82-6.67-2.97-1.46-6.16.69-6.18,4.17Z"/>
        <path class="cls-2" d="m109.72,48.95c-.07,1.89.69,3.2,2.17,3.64,1.64.49,3.81.65,5.15-1.63,1.67,0,3.37,0,5.08,0,.14,0,.27.05.49.09-.3,1.85-1.27,3.23-2.68,4.32-1.73,1.33-3.76,1.82-5.89,1.87-3.17.07-6.01-.74-8.14-3.31-3.09-3.74-3.04-11.4,1.92-14.58,4.12-2.64,10.99-1.92,13.73,2.59,1.3,2.13,1.63,4.45,1.12,7h-12.94Zm-.02-3.41h7.33c.09-1.97-1.38-3.33-3.59-3.37-2.2-.04-3.76,1.34-3.75,3.37Z"/>
        <path class="cls-2" d="m108.96,26.91h5.6c-.28,2.05-1.4,3.51-2.99,4.61-3.43,2.38-9.1,2.28-12.37-.31-2.81-2.22-3.65-5.31-3.42-8.73.31-4.57,3.09-7.8,7.56-8.52,3.91-.62,7.49.19,9.94,3.64,1.54,2.17,1.86,4.65,1.33,7.33h-12.92c-.13,1.79.68,3.19,2.17,3.63,1.61.48,3.78.63,5.11-1.65Zm.01-5.47c.09-1.94-1.3-3.2-3.48-3.28-2.29-.09-4.09,1.43-3.83,3.28h7.31Z"/>
        <path class="cls-2" d="m126.23,69.56h-5.75c-.92-2.24-1.92-2.85-4.23-2.6-1.82.19-2.97,1.47-3.36,3.56-.21,1.11-.09,2.17.28,3.2.58,1.6,1.8,2.38,3.47,2.5,1.62.11,2.94-.34,3.61-1.97.05-.13.14-.25.21-.39h5.76c-.31,2.35-1.34,4.19-3.21,5.57-3.69,2.73-11.35,2.64-14.44-2.31-2.14-3.43-2.22-7.03-.36-10.53,1.73-3.27,4.72-4.63,8.37-4.67,1.5-.01,2.96.09,4.36.66,3.1,1.26,4.79,3.58,5.29,6.97Z"/>
        <path class="cls-2" d="m82.91,68.09h-5.55s-.1-.13-.11-.22c-.21-2.09-1.98-2.33-3.37-1.93-.64.18-1.1.61-1.14,1.3-.05.65.36,1.08.91,1.35,1.3.64,2.71.98,4.09,1.43.79.26,1.6.48,2.36.8,3.71,1.6,4.27,6.29,1.07,8.79-1.33,1.04-2.9,1.43-4.54,1.6-2.16.23-4.27.08-6.3-.74-2.46-.99-3.81-3.14-3.67-5.84h5.58c.11,1.16.69,1.92,1.9,2.15,1.22.23,2.37.25,3.26-.69.12-.43.11-.79.03-1.17-.36-.61-1-.78-1.61-1-1.9-.68-3.89-1.13-5.74-1.96-2.65-1.19-3.62-3.26-2.84-6.03.38-1.37,1.25-2.39,2.54-2.95,3.43-1.47,6.89-1.56,10.29.08,1.95.94,2.94,2.81,2.84,5.02Z"/>
        <path class="cls-2" d="m164.85,80.63c-.17.03-.27.07-.38.07-1.74,0-3.48,0-5.31,0v-26.53h5.68v26.46Z"/>
        <path class="cls-2" d="m95.3,56.68h-5.71v-18.26h5.63c.18.78,0,1.62.12,2.58.91-1.12,1.87-2.07,3.17-2.54,1.32-.48,2.66-.69,4.07-.14.19.88.08,1.79.08,2.68,0,.86.08,1.73-.07,2.64-1.1-.23-2.18-.34-3.25-.15-2.54.46-3.93,2.26-4.02,5.28-.06,2.21-.02,4.42-.02,6.64,0,.39,0,.79,0,1.27Z"/>
        <path class="cls-2" d="m128.38,62.42h5.63v18.3h-5.63v-18.3Z"/>
        <path class="cls-2" d="m131.15,60.02c-1.88.21-3.77-1.78-3.68-3.71.1-2.09,1.63-3.69,3.73-3.68,2.13.01,3.71,1.58,3.72,3.69,0,2.19-1.54,3.71-3.77,3.71Z"/>
      </g>
      <rect class="cls-1" width="230.14" height="95.08"/>
    </g>
  </g>
</svg>