<?xml version="1.0" encoding="UTF-8"?>
<svg id="Layer_2" data-name="Layer 2" xmlns="http://www.w3.org/2000/svg" viewBox="0 0 26.63 44.39">
  <defs>
    <style>
      .cls-1 {
        fill: #e2e574;
        stroke-width: 0px;
      }
    </style>
  </defs>
  <g id="Layer_1-2" data-name="Layer 1">
    <g>
      <path class="cls-1" d="M1.83,0h7.05v7.05c0,1.01-.82,1.83-1.83,1.83H1.83C.82,8.88,0,8.06,0,7.05V1.83C0,.82.82,0,1.83,0Z" transform="translate(8.88 0) rotate(90)"/>
      <path class="cls-1" d="M10.71,8.88h7.05v7.05c0,1.01-.82,1.83-1.83,1.83h-7.05v-7.05c0-1.01.82-1.83,1.83-1.83Z" transform="translate(26.63 0) rotate(90)"/>
      <path class="cls-1" d="M19.58,17.76h5.22c1.01,0,1.83.82,1.83,1.83v7.05h-8.88v-7.05c0-1.01.82-1.83,1.83-1.83Z" transform="translate(44.39 0) rotate(90)"/>
      <path class="cls-1" d="M8.88,26.63h7.05c1.01,0,1.83.82,1.83,1.83v7.05h-7.05c-1.01,0-1.83-.82-1.83-1.83v-7.05h0Z" transform="translate(44.39 17.76) rotate(90)"/>
      <g>
        <path class="cls-1" d="M8.88,35.51h-1.84s0,0,0,0c1.02,0,1.84-.82,1.84-1.84h0s0,1.84,0,1.84Z"/>
        <path class="cls-1" d="M8.88,35.51h1.84s0,0,0,0c-1.02,0-1.84.82-1.84,1.84h0s0-1.84,0-1.84Z"/>
      </g>
      <g>
        <path class="cls-1" d="M17.76,26.63h-1.84s0,0,0,0c1.02,0,1.84-.82,1.84-1.84h0s0,1.84,0,1.84Z"/>
        <path class="cls-1" d="M17.76,26.63h1.84s0,0,0,0c-1.02,0-1.84.82-1.84,1.84h0s0-1.84,0-1.84Z"/>
      </g>
      <g>
        <path class="cls-1" d="M17.76,17.76v1.84s0,0,0,0c0-1.02-.82-1.84-1.84-1.84h0,1.84Z"/>
        <path class="cls-1" d="M17.76,17.76v-1.84s0,0,0,0c0,1.02.82,1.84,1.84,1.84h0-1.84Z"/>
      </g>
      <g>
        <path class="cls-1" d="M8.88,8.88v-1.84s0,0,0,0c0,1.02.82,1.84,1.84,1.84h0-1.84Z"/>
        <path class="cls-1" d="M8.88,8.88v1.84s0,0,0,0c0-1.02-.82-1.84-1.84-1.84h0,1.84Z"/>
      </g>
      <path class="cls-1" d="M1.83,35.51h5.22c1.01,0,1.83.82,1.83,1.83v7.05H1.83C.82,44.39,0,43.57,0,42.56v-5.22C0,36.33.82,35.51,1.83,35.51Z" transform="translate(-35.51 44.39) rotate(-90)"/>
    </g>
  </g>
</svg>