<?xml version="1.0" encoding="UTF-8"?>
<svg id="Layer_2" data-name="Layer 2" xmlns="http://www.w3.org/2000/svg" viewBox="0 0 54.07 45.06">
  <defs>
    <style>
      .cls-1 {
        fill: #eaed74;
        stroke-width: 0px;
      }
    </style>
  </defs>
  <g id="Layer_1-2" data-name="Layer 1">
    <path class="cls-1" d="m54.07,19.88v5.3c0,1.02-.83,1.85-1.86,1.85h-5.29c-1.03,0-1.86.84-1.86,1.87v5.29c0,1.02-.84,1.85-1.86,1.85h-5.29c-1.03,0-1.87.84-1.87,1.87v5.29c0,1.03-.83,1.86-1.85,1.86h-5.3c-1.03,0-1.86-.83-1.86-1.86v-5.3c0-1.03.83-1.86,1.86-1.86h5.29c1.03,0,1.86-.83,1.86-1.86v-7.15H1.85c-1.02,0-1.85-.83-1.85-1.85v-5.3c0-1.03.83-1.86,1.85-1.86h34.19v-7.14c0-1.03-.83-1.87-1.86-1.87h-5.29c-1.03,0-1.86-.83-1.86-1.86V1.85c0-1.02.83-1.85,1.86-1.85h5.3c1.02,0,1.85.83,1.85,1.85v5.29c0,1.03.84,1.87,1.87,1.87h5.29c1.02,0,1.86.83,1.86,1.85v5.29c0,1.03.83,1.87,1.86,1.87h5.29c1.03,0,1.86.83,1.86,1.86Z"/>
  </g>
</svg>