<?xml version="1.0" encoding="UTF-8"?>
<svg id="Layer_2" data-name="Layer 2" xmlns="http://www.w3.org/2000/svg" viewBox="0 0 190.88 100.78">
  <defs>
    <style>
      .cls-1 {
        fill: #e9ec74;
        stroke-width: 0px;
      }
    </style>
  </defs>
  <g id="Layer_1-2" data-name="Layer 1">
    <g>
      <g>
        <path class="cls-1" d="M44.46,80.62h16.01v16.01c0,2.29-1.86,4.15-4.15,4.15h-11.86c-2.29,0-4.15-1.86-4.15-4.15v-11.86c0-2.29,1.86-4.15,4.15-4.15Z" transform="translate(-40.31 141.09) rotate(-90)"/>
        <path class="cls-1" d="M24.3,60.47h16.01v16.01c0,2.29-1.86,4.15-4.15,4.15h-16.01v-16.01c0-2.29,1.86-4.15,4.15-4.15Z" transform="translate(-40.31 100.78) rotate(-90)"/>
        <path class="cls-1" d="M4.15,40.31h11.86c2.29,0,4.15,1.86,4.15,4.15v16.01H0v-16.01C0,42.17,1.86,40.31,4.15,40.31Z" transform="translate(-40.31 60.47) rotate(-90)"/>
        <path class="cls-1" d="M20.16,20.16h16.01c2.29,0,4.15,1.86,4.15,4.15v16.01h-16.01c-2.29,0-4.15-1.86-4.15-4.15v-16.01h0Z" transform="translate(0 60.47) rotate(-90)"/>
        <g>
          <path class="cls-1" d="M40.31,20.16h4.18,0c-2.31,0-4.18,1.87-4.18,4.18h0s0-4.18,0-4.18Z"/>
          <path class="cls-1" d="M40.31,20.16h-4.18s0,0,0,0c2.31,0,4.18-1.87,4.18-4.18h0s0,4.18,0,4.18Z"/>
        </g>
        <g>
          <path class="cls-1" d="M20.16,40.31h4.18,0c-2.31,0-4.18,1.87-4.18,4.18h0s0-4.18,0-4.18Z"/>
          <path class="cls-1" d="M20.16,40.31h-4.18s0,0,0,0c2.31,0,4.18-1.87,4.18-4.18h0s0,4.18,0,4.18Z"/>
        </g>
        <g>
          <path class="cls-1" d="M20.16,60.47v-4.18h0c0,2.31,1.87,4.18,4.18,4.18h0-4.18Z"/>
          <path class="cls-1" d="M20.16,60.47v4.18s0,0,0,0c0-2.31-1.87-4.18-4.18-4.18h0,4.18Z"/>
        </g>
        <g>
          <path class="cls-1" d="M40.31,80.62v4.18h0c0-2.31-1.87-4.18-4.18-4.18h0,4.18Z"/>
          <path class="cls-1" d="M40.31,80.62v-4.18s0,0,0,0c0,2.31,1.87,4.18,4.18,4.18h0-4.18Z"/>
        </g>
        <path class="cls-1" d="M44.46,0h11.86C58.61,0,60.47,1.86,60.47,4.15v16.01h-16.01c-2.29,0-4.15-1.86-4.15-4.15V4.15C40.31,1.86,42.17,0,44.46,0Z" transform="translate(60.47 -40.31) rotate(90)"/>
      </g>
      <g>
        <path class="cls-1" d="M134.56,0h16.01v16.01c0,2.29-1.86,4.15-4.15,4.15h-11.86c-2.29,0-4.15-1.86-4.15-4.15V4.15c0-2.29,1.86-4.15,4.15-4.15Z" transform="translate(150.57 -130.41) rotate(90)"/>
        <path class="cls-1" d="M154.72,20.16h16.01v16.01c0,2.29-1.86,4.15-4.15,4.15h-16.01v-16.01c0-2.29,1.86-4.15,4.15-4.15Z" transform="translate(190.88 -130.41) rotate(90)"/>
        <path class="cls-1" d="M174.87,40.31h11.86c2.29,0,4.15,1.86,4.15,4.15v16.01h-20.16v-16.01c0-2.29,1.86-4.15,4.15-4.15Z" transform="translate(231.19 -130.41) rotate(90)"/>
        <path class="cls-1" d="M150.57,60.47h16.01c2.29,0,4.15,1.86,4.15,4.15v16.01h-16.01c-2.29,0-4.15-1.86-4.15-4.15v-16.01h0Z" transform="translate(231.19 -90.1) rotate(90)"/>
        <g>
          <path class="cls-1" d="M150.57,80.62h-4.18,0c2.31,0,4.18-1.87,4.18-4.18h0s0,4.18,0,4.18Z"/>
          <path class="cls-1" d="M150.57,80.62h4.18s0,0,0,0c-2.31,0-4.18,1.87-4.18,4.18h0s0-4.18,0-4.18Z"/>
        </g>
        <g>
          <path class="cls-1" d="M170.72,60.47h-4.18,0c2.31,0,4.18-1.87,4.18-4.18h0s0,4.18,0,4.18Z"/>
          <path class="cls-1" d="M170.72,60.47h4.18s0,0,0,0c-2.31,0-4.18,1.87-4.18,4.18h0s0-4.18,0-4.18Z"/>
        </g>
        <g>
          <path class="cls-1" d="M170.72,40.31v4.18h0c0-2.31-1.87-4.18-4.18-4.18h0,4.18Z"/>
          <path class="cls-1" d="M170.72,40.31v-4.18s0,0,0,0c0,2.31,1.87,4.18,4.18,4.18h0-4.18Z"/>
        </g>
        <g>
          <path class="cls-1" d="M150.57,20.16v-4.18h0c0,2.31,1.87,4.18,4.18,4.18h0-4.18Z"/>
          <path class="cls-1" d="M150.57,20.16v4.18s0,0,0,0c0-2.31-1.87-4.18-4.18-4.18h0,4.18Z"/>
        </g>
        <path class="cls-1" d="M134.56,80.62h11.86c2.29,0,4.15,1.86,4.15,4.15v16.01h-16.01c-2.29,0-4.15-1.86-4.15-4.15v-11.86c0-2.29,1.86-4.15,4.15-4.15Z" transform="translate(49.79 231.19) rotate(-90)"/>
      </g>
    </g>
  </g>
</svg>